<svg width="21" height="20" viewBox="0 0 21 20" fill="none" xmlns="http://www.w3.org/2000/svg">
<mask id="mask0" mask-type="alpha" maskUnits="userSpaceOnUse" x="0" y="1" width="20" height="18">
<path fill-rule="evenodd" clip-rule="evenodd" d="M0 1.00043H19.9939V18.7793H0V1.00043Z" fill="white"/>
</mask>
<g mask="url(#mask0)">
<path fill-rule="evenodd" clip-rule="evenodd" d="M13.2964 12.2297L13.2676 12.2129C12.0905 13.1521 10.9687 13.4629 9.99716 13.4629C9.02563 13.4629 7.90379 13.1521 6.72669 12.2129L6.69795 12.2297V12.2241L10.006 10.2764L13.2964 12.2241V12.2297ZM8.33498 3.45627H8.35377L8.33498 7.44996L5.03355 9.31824L5.03134 9.31264C4.35824 4.54861 8.33498 3.45627 8.33498 3.45627ZM14.9641 9.31264L14.9575 9.31824L11.6594 7.44996L11.6406 3.45627H11.6594C11.6594 3.45627 15.6372 4.54861 14.9641 9.31264ZM18.0887 11.4615C17.2056 13.6853 15.7235 14.3114 15.7235 14.3114C20.0815 9.84593 17.4201 4.69729 17.4201 4.69729C16.7768 3.54457 17.5969 3.04033 17.5969 3.04033C15.7235 3.5155 16.3093 5.0819 16.3093 5.0819C17.2487 7.34708 17.0597 9.18852 16.7403 10.3278L16.1236 9.97787L16.1346 9.96333C16.1346 9.96333 17.5958 4.13826 11.6351 2.09669L11.6307 0.999878H10.3718V8.21805L16.2208 11.5912C16.1158 11.8104 16.002 12.015 15.8837 12.2106L10.0093 8.76813L4.10937 12.2106C3.99332 12.015 3.87947 11.8104 3.77226 11.5912L9.62132 8.21805V0.999878H8.36353L8.35911 2.09669C2.39953 4.13826 3.86068 9.96333 3.86068 9.96333L3.87063 9.97787L3.25279 10.3278C2.93337 9.18852 2.74437 7.34708 3.68495 5.0819C3.68495 5.0819 4.27074 3.5155 2.39842 3.04033C2.39842 3.04033 3.21632 3.54457 2.57305 4.69729C2.57305 4.69729 -0.0873158 9.84593 4.27074 14.3114C4.27074 14.3114 2.78858 13.6853 1.90437 11.4615C1.90437 11.4615 1.40368 10.3781 0 10.614L0.841105 11.8394C0.841105 11.8394 2.10553 15.9103 6.98968 16.5308V18.7792H9.387V15.4675C9.387 15.4675 6.84268 15.4452 4.90184 13.2828L5.50421 12.9284C5.61584 13.0357 7.46384 14.7643 9.98274 14.8101V14.8123H9.99711H10.0115V14.8101C12.5304 14.7643 14.3784 13.0357 14.4911 12.9284L15.0913 13.2828C13.1504 15.4452 10.6061 15.4675 10.6061 15.4675V18.7792H13.0045V16.5308C17.8887 15.9103 19.152 11.8394 19.152 11.8394C19.4626 10.8567 19.9942 10.614 19.9942 10.614C18.5894 10.3781 18.0887 11.4615 18.0887 11.4615Z" fill="#0056A6"/>
</g>
</svg>
