<svg width="21" height="20" viewBox="0 0 21 20" fill="none" xmlns="http://www.w3.org/2000/svg">
<mask id="mask0" mask-type="alpha" maskUnits="userSpaceOnUse" x="5" y="8" width="8" height="11">
<path fill-rule="evenodd" clip-rule="evenodd" d="M5.72266 8.44885H12.5179V18.6745H5.72266V8.44885Z" fill="white"/>
</mask>
<g mask="url(#mask0)">
<path fill-rule="evenodd" clip-rule="evenodd" d="M12.2355 10.7009C11.9017 9.96426 11.4358 9.34547 10.7382 8.92977C9.65322 8.28245 8.34179 8.28754 7.26844 8.9515C6.78264 9.25207 6.38263 9.68305 6.12493 10.2023C6.03781 10.3776 5.96699 10.5613 5.90847 10.7491C5.62616 11.6678 5.63547 12.9027 6.14655 13.7412C6.31247 14.0143 6.55254 14.2483 6.84682 14.3647C7.14076 14.4802 7.49023 14.4673 7.75491 14.2931C8.0964 14.0679 8.15725 13.6386 8.09374 13.2566C8.01327 12.7675 7.95142 12.2869 8.12765 11.8091C8.18385 11.6569 8.26299 11.5102 8.37837 11.3975C8.44853 11.3285 8.53099 11.2732 8.61877 11.2297C8.80332 11.1377 9.0148 11.0959 9.21796 11.1298C9.57242 11.1879 9.86403 11.4701 10.022 11.8006C10.1796 12.1307 10.2221 12.505 10.2394 12.8721C10.3149 14.4724 9.94118 16.1294 9.54083 17.6666C9.49993 17.8248 9.45704 17.9824 9.41315 18.14C9.37923 18.2616 9.31838 18.4164 9.39419 18.535C9.42744 18.5849 9.47832 18.6209 9.53352 18.644C9.76461 18.7398 9.95614 18.5937 10.1114 18.4338C11.0295 17.49 11.6187 16.2724 12.0217 15.0199C12.1717 14.5529 12.3 14.0774 12.3875 13.5928C12.5062 12.9305 12.5737 12.1721 12.458 11.4732C12.4134 11.2035 12.3416 10.9437 12.2355 10.7009Z" fill="#F9F9F9"/>
</g>
<mask id="mask1" mask-type="alpha" maskUnits="userSpaceOnUse" x="0" y="3" width="20" height="6">
<path fill-rule="evenodd" clip-rule="evenodd" d="M0 3.68665H19.033V8.21055H0V3.68665Z" fill="white"/>
</mask>
<g mask="url(#mask1)">
<path fill-rule="evenodd" clip-rule="evenodd" d="M19.0331 4.07751C19.0331 3.83774 18.8249 3.67879 18.6015 3.68694C18.3751 3.69476 18.1636 3.8143 17.9561 3.89547C13.9157 5.46453 9.35866 5.76272 5.10084 5.13544C4.3723 5.02845 3.63446 4.878 2.90127 4.76117C2.44373 4.68849 1.99118 4.58219 1.52833 4.54653C1.1343 4.5163 0.643844 4.50102 0.32563 4.78155C-0.0949983 5.15174 -0.0654048 5.8534 0.173007 6.31834C0.4593 6.87498 0.960728 7.29238 1.48177 7.60993C1.98753 7.91796 2.59237 8.24672 3.19488 8.20732C4.82219 8.10136 6.44618 7.94072 8.06252 7.72642C10.8217 7.3603 13.7132 7.01491 16.3032 5.92268C17.1504 5.56506 17.9864 5.11913 18.7116 4.54279C18.8442 4.44159 19.0331 4.27347 19.0331 4.07751Z" fill="#F9F9F9"/>
</g>
<path fill-rule="evenodd" clip-rule="evenodd" d="M7.44531 2.66359C7.44531 3.56054 8.15722 4.28665 9.03439 4.28665C9.91222 4.28665 10.6245 3.56054 10.6245 2.66359C10.6245 2.53012 10.5942 2.39597 10.5383 2.27439C10.402 1.97959 10.2487 1.83661 10.2637 1.48273C10.2843 1.0059 9.68545 1.00012 9.36391 1.00012C9.01211 1.00012 8.63936 1.04971 8.32215 1.21273C8.06877 1.34212 7.85164 1.54216 7.69802 1.78499C7.53941 2.03597 7.4523 2.32873 7.44598 2.62624C7.44531 2.6388 7.44531 2.65103 7.44531 2.66359Z" fill="#F9F9F9"/>
</svg>
