<svg width="20" height="20" viewBox="0 0 20 20" fill="none" xmlns="http://www.w3.org/2000/svg">
<path fill-rule="evenodd" clip-rule="evenodd" d="M19.0322 10.4806C19.0322 15.7146 14.7852 19.9606 9.55522 19.9606C4.31822 19.9606 0.0742188 15.7146 0.0742188 10.4806C0.0742188 5.24461 4.31822 1.00061 9.55422 1.00061C14.7852 1.00061 19.0322 5.24461 19.0322 10.4806Z" fill="#FEFEFE"/>
<path fill-rule="evenodd" clip-rule="evenodd" d="M9.55358 19.4835C14.5446 19.4835 18.5876 15.4375 18.5876 10.4475C18.5876 5.45748 14.5446 1.41248 9.55258 1.41248C4.56158 1.41248 0.517578 5.45748 0.517578 10.4475C0.517578 15.4395 4.56258 19.4835 9.55358 19.4835Z" fill="#0083C9"/>
<mask id="mask0" mask-type="alpha" maskUnits="userSpaceOnUse" x="0" y="1" width="19" height="19">
<path fill-rule="evenodd" clip-rule="evenodd" d="M0.519531 10.447C0.519531 15.439 4.56353 19.483 9.55453 19.483C14.5455 19.483 18.5895 15.4381 18.5895 10.447C18.5895 5.45805 14.5455 1.41205 9.55353 1.41205C4.56253 1.41205 0.519531 5.45805 0.519531 10.447Z" fill="white"/>
</mask>
<g mask="url(#mask0)">
<path fill-rule="evenodd" clip-rule="evenodd" d="M9.58995 14.8068C13.561 14.8068 16.964 15.9128 18.421 17.4868C18.911 16.3658 19.18 15.1268 19.18 13.8298C19.18 8.64576 14.883 4.44575 9.58995 4.44775C4.29795 4.44775 0.00195312 8.64675 0.00195312 13.8308C0.00195312 15.1298 0.270953 16.3658 0.759953 17.4868C2.21395 15.9128 5.62095 14.8068 9.58995 14.8068Z" fill="#0083C9"/>
</g>
<mask id="mask1" mask-type="alpha" maskUnits="userSpaceOnUse" x="0" y="1" width="19" height="19">
<path fill-rule="evenodd" clip-rule="evenodd" d="M0.519531 10.447C0.519531 15.439 4.56353 19.483 9.55453 19.483C14.5455 19.483 18.5895 15.4381 18.5895 10.447C18.5895 5.45805 14.5455 1.41205 9.55353 1.41205C4.56253 1.41205 0.519531 5.45805 0.519531 10.447Z" fill="white"/>
</mask>
<g mask="url(#mask1)">
<path fill-rule="evenodd" clip-rule="evenodd" d="M9.58874 4.52557C4.31474 4.52557 0.0307391 8.70157 0.0257391 13.8396C0.0247391 13.9556 0.0257391 14.0676 0.0307391 14.1816C0.0727391 15.3476 0.335739 16.4596 0.780739 17.4746C2.23174 15.9156 5.62974 14.8176 9.58874 14.8176C13.5487 14.8176 16.9437 15.9156 18.3987 17.4746C18.8437 16.4596 19.1057 15.3456 19.1477 14.1786C19.1517 14.0666 19.1537 13.9526 19.1537 13.8386C19.1477 8.69957 14.8637 4.52557 9.58874 4.52557Z" fill="#0084CB"/>
</g>
<mask id="mask2" mask-type="alpha" maskUnits="userSpaceOnUse" x="0" y="1" width="19" height="19">
<path fill-rule="evenodd" clip-rule="evenodd" d="M0.519531 10.447C0.519531 15.439 4.56353 19.483 9.55453 19.483C14.5455 19.483 18.5895 15.4381 18.5895 10.447C18.5895 5.45805 14.5455 1.41205 9.55353 1.41205C4.56253 1.41205 0.519531 5.45805 0.519531 10.447Z" fill="white"/>
</mask>
<g mask="url(#mask2)">
<path fill-rule="evenodd" clip-rule="evenodd" d="M9.58783 4.60754C4.33183 4.60754 0.0618281 8.75354 0.0488281 13.8485C0.0488281 13.9625 0.0498281 14.0765 0.0548281 14.1875C0.0958281 15.3485 0.358828 16.4525 0.802828 17.4625C2.25083 15.9165 5.63983 14.8295 9.58783 14.8295C13.5378 14.8295 16.9238 15.9165 18.3738 17.4625C18.8208 16.4525 19.0828 15.3455 19.1228 14.1855C19.1268 14.0735 19.1278 13.9605 19.1278 13.8455C19.1148 8.75354 14.8468 4.60754 9.58783 4.60754Z" fill="#0086CC"/>
</g>
<mask id="mask3" mask-type="alpha" maskUnits="userSpaceOnUse" x="0" y="1" width="19" height="19">
<path fill-rule="evenodd" clip-rule="evenodd" d="M0.519531 10.447C0.519531 15.439 4.56353 19.483 9.55453 19.483C14.5455 19.483 18.5895 15.4381 18.5895 10.447C18.5895 5.45805 14.5455 1.41205 9.55353 1.41205C4.56253 1.41205 0.519531 5.45805 0.519531 10.447Z" fill="white"/>
</mask>
<g mask="url(#mask3)">
<path fill-rule="evenodd" clip-rule="evenodd" d="M9.58627 4.68561C4.34727 4.68561 0.0902656 8.80761 0.0722656 13.8576C0.0722656 13.9696 0.0732656 14.0816 0.0772656 14.1946C0.116266 15.3486 0.378266 16.4466 0.823266 17.4526C2.26727 15.9166 5.64727 14.8376 9.58627 14.8376C13.5263 14.8376 16.9033 15.9166 18.3503 17.4526C18.7963 16.4466 19.0573 15.3456 19.0963 14.1936C19.1003 14.0816 19.1013 13.9666 19.1013 13.8546C19.0833 8.80661 14.8273 4.68561 9.58627 4.68561Z" fill="#0088CD"/>
</g>
<mask id="mask4" mask-type="alpha" maskUnits="userSpaceOnUse" x="0" y="1" width="19" height="19">
<path fill-rule="evenodd" clip-rule="evenodd" d="M0.519531 10.447C0.519531 15.439 4.56353 19.483 9.55453 19.483C14.5455 19.483 18.5895 15.4381 18.5895 10.447C18.5895 5.45805 14.5455 1.41205 9.55353 1.41205C4.56253 1.41205 0.519531 5.45805 0.519531 10.447Z" fill="white"/>
</mask>
<g mask="url(#mask4)">
<path fill-rule="evenodd" clip-rule="evenodd" d="M9.5859 4.76575C4.3639 4.76575 0.119897 8.86375 0.0958969 13.8667C0.0948969 13.9787 0.0978969 14.0897 0.101897 14.2017C0.138897 15.3487 0.399897 16.4417 0.845897 17.4417C2.2849 15.9167 5.6579 14.8487 9.5859 14.8487C13.5149 14.8487 16.8849 15.9167 18.3269 17.4417C18.7739 16.4417 19.0339 15.3457 19.0709 14.2007C19.0749 14.0877 19.0769 13.9757 19.0749 13.8637C19.0509 8.86075 14.8089 4.76575 9.5859 4.76575Z" fill="#0089CE"/>
</g>
<mask id="mask5" mask-type="alpha" maskUnits="userSpaceOnUse" x="0" y="1" width="19" height="19">
<path fill-rule="evenodd" clip-rule="evenodd" d="M0.519531 10.447C0.519531 15.439 4.56353 19.483 9.55453 19.483C14.5455 19.483 18.5895 15.4381 18.5895 10.447C18.5895 5.45805 14.5455 1.41205 9.55353 1.41205C4.56253 1.41205 0.519531 5.45805 0.519531 10.447Z" fill="white"/>
</mask>
<g mask="url(#mask5)">
<path fill-rule="evenodd" clip-rule="evenodd" d="M9.58295 4.84583C4.37895 4.84583 0.148946 8.91583 0.119946 13.8748C0.117946 13.9868 0.119946 14.0978 0.122946 14.2068C0.159946 15.3488 0.419946 16.4358 0.866946 17.4288C2.30195 15.9188 5.66595 14.8578 9.58295 14.8578C13.5029 14.8578 16.8629 15.9188 18.3019 17.4288C18.7499 16.4358 19.0089 15.3478 19.0449 14.2058C19.0479 14.0958 19.0489 13.9858 19.0489 13.8728C19.0179 8.91383 14.7909 4.84583 9.58295 4.84583Z" fill="#008BCF"/>
</g>
<mask id="mask6" mask-type="alpha" maskUnits="userSpaceOnUse" x="0" y="1" width="19" height="19">
<path fill-rule="evenodd" clip-rule="evenodd" d="M0.519531 10.447C0.519531 15.439 4.56353 19.483 9.55453 19.483C14.5455 19.483 18.5895 15.4381 18.5895 10.447C18.5895 5.45805 14.5455 1.41205 9.55353 1.41205C4.56253 1.41205 0.519531 5.45805 0.519531 10.447Z" fill="white"/>
</mask>
<g mask="url(#mask6)">
<path fill-rule="evenodd" clip-rule="evenodd" d="M9.58294 4.92596C4.39494 4.92596 0.177939 8.97096 0.142939 13.884C0.141939 13.994 0.142939 14.105 0.146939 14.215C0.181939 15.349 0.440939 16.43 0.888939 17.417C2.31994 15.92 5.67394 14.869 9.58294 14.869C13.4919 14.869 16.8439 15.92 18.2779 17.417C18.7249 16.43 18.9839 15.348 19.0199 14.213C19.0229 14.104 19.0229 13.992 19.0229 13.881C18.9859 8.96996 14.7709 4.92596 9.58294 4.92596Z" fill="#008DD1"/>
</g>
<mask id="mask7" mask-type="alpha" maskUnits="userSpaceOnUse" x="0" y="1" width="19" height="19">
<path fill-rule="evenodd" clip-rule="evenodd" d="M0.519531 10.447C0.519531 15.439 4.56353 19.483 9.55453 19.483C14.5455 19.483 18.5895 15.4381 18.5895 10.447C18.5895 5.45805 14.5455 1.41205 9.55353 1.41205C4.56253 1.41205 0.519531 5.45805 0.519531 10.447Z" fill="white"/>
</mask>
<g mask="url(#mask7)">
<path fill-rule="evenodd" clip-rule="evenodd" d="M9.58334 5.00604C4.41234 5.00604 0.209344 9.02504 0.168344 13.893C0.167344 14.002 0.168344 14.112 0.171344 14.221C0.205344 15.349 0.465344 16.424 0.911344 17.406C2.33934 15.921 5.68534 14.879 9.58334 14.879C13.4823 14.879 16.8253 15.921 18.2553 17.406C18.7033 16.424 18.9623 15.349 18.9953 14.22C18.9993 14.11 19.0003 14 18.9993 13.89C18.9563 9.02204 14.7533 5.00604 9.58334 5.00604Z" fill="#008FD2"/>
</g>
<mask id="mask8" mask-type="alpha" maskUnits="userSpaceOnUse" x="0" y="1" width="19" height="19">
<path fill-rule="evenodd" clip-rule="evenodd" d="M0.519531 10.447C0.519531 15.439 4.56353 19.483 9.55453 19.483C14.5455 19.483 18.5895 15.4381 18.5895 10.447C18.5895 5.45805 14.5455 1.41205 9.55353 1.41205C4.56253 1.41205 0.519531 5.45805 0.519531 10.447Z" fill="white"/>
</mask>
<g mask="url(#mask8)">
<path fill-rule="evenodd" clip-rule="evenodd" d="M9.58045 5.08807C4.42845 5.08807 0.238453 9.07807 0.189453 13.9011C0.189453 14.0101 0.189453 14.1191 0.193453 14.2281C0.225453 15.3491 0.484453 16.4191 0.932453 17.3951C2.35545 15.9231 5.69345 14.8891 9.58045 14.8891C13.4685 14.8891 16.8035 15.9231 18.2305 17.3951C18.6785 16.4171 18.9355 15.3491 18.9685 14.2261C18.9715 14.1171 18.9725 14.0071 18.9715 13.8981C18.9225 9.07607 14.7345 5.08607 9.58045 5.08807Z" fill="#0091D3"/>
</g>
<mask id="mask9" mask-type="alpha" maskUnits="userSpaceOnUse" x="0" y="1" width="19" height="19">
<path fill-rule="evenodd" clip-rule="evenodd" d="M0.519531 10.447C0.519531 15.439 4.56353 19.483 9.55453 19.483C14.5455 19.483 18.5895 15.4381 18.5895 10.447C18.5895 5.45805 14.5455 1.41205 9.55353 1.41205C4.56253 1.41205 0.519531 5.45805 0.519531 10.447Z" fill="white"/>
</mask>
<g mask="url(#mask9)">
<path fill-rule="evenodd" clip-rule="evenodd" d="M9.57889 5.16815C4.44389 5.16815 0.265891 9.13215 0.212891 13.9102C0.212891 14.0192 0.212891 14.1262 0.216891 14.2352C0.246891 15.3502 0.505891 16.4122 0.952891 17.3842C2.37289 15.9242 5.70189 14.8982 9.57889 14.8982C13.4569 14.8982 16.7829 15.9242 18.2059 17.3842C18.6539 16.4122 18.9119 15.3492 18.9409 14.2332C18.9449 14.1252 18.9449 14.0172 18.9449 13.9062C18.8889 9.13115 14.7159 5.16615 9.57889 5.16815Z" fill="#0093D4"/>
</g>
<mask id="mask10" mask-type="alpha" maskUnits="userSpaceOnUse" x="0" y="1" width="19" height="19">
<path fill-rule="evenodd" clip-rule="evenodd" d="M0.519531 10.447C0.519531 15.439 4.56353 19.483 9.55453 19.483C14.5455 19.483 18.5895 15.4381 18.5895 10.447C18.5895 5.45805 14.5455 1.41205 9.55353 1.41205C4.56253 1.41205 0.519531 5.45805 0.519531 10.447Z" fill="white"/>
</mask>
<g mask="url(#mask10)">
<path fill-rule="evenodd" clip-rule="evenodd" d="M9.57814 5.24725C4.46014 5.24725 0.29714 9.18525 0.23814 13.9193C0.23514 14.0253 0.23614 14.1343 0.23914 14.2413C0.26814 15.3503 0.52714 16.4073 0.97414 17.3713C2.39114 15.9243 5.71014 14.9083 9.57814 14.9083C13.4451 14.9083 16.7641 15.9243 18.1821 17.3713C18.6311 16.4063 18.8881 15.3493 18.9161 14.2403C18.9201 14.1323 18.9201 14.0233 18.9181 13.9153C18.8581 9.18525 14.6971 5.24725 9.57814 5.24725Z" fill="#0094D6"/>
</g>
<mask id="mask11" mask-type="alpha" maskUnits="userSpaceOnUse" x="0" y="1" width="19" height="19">
<path fill-rule="evenodd" clip-rule="evenodd" d="M0.519531 10.447C0.519531 15.439 4.56353 19.483 9.55453 19.483C14.5455 19.483 18.5895 15.4381 18.5895 10.447C18.5895 5.45805 14.5455 1.41205 9.55353 1.41205C4.56253 1.41205 0.519531 5.45805 0.519531 10.447Z" fill="white"/>
</mask>
<g mask="url(#mask11)">
<path fill-rule="evenodd" clip-rule="evenodd" d="M9.57636 5.32831C4.47536 5.32831 0.326364 9.23931 0.260364 13.9283C0.259364 14.0353 0.259364 14.1413 0.262364 14.2483C0.290364 15.3493 0.547364 16.4003 0.994364 17.3603C2.40836 15.9253 5.71936 14.9193 9.57636 14.9193C13.4344 14.9193 16.7434 15.9253 18.1584 17.3603C18.6074 16.4003 18.8634 15.3493 18.8904 14.2483C18.8934 14.1403 18.8944 14.0313 18.8914 13.9243C18.8264 9.23831 14.6794 5.32631 9.57636 5.32831Z" fill="#0096D7"/>
</g>
<mask id="mask12" mask-type="alpha" maskUnits="userSpaceOnUse" x="0" y="1" width="19" height="19">
<path fill-rule="evenodd" clip-rule="evenodd" d="M0.519531 10.447C0.519531 15.439 4.56353 19.483 9.55453 19.483C14.5455 19.483 18.5895 15.4381 18.5895 10.447C18.5895 5.45805 14.5455 1.41205 9.55353 1.41205C4.56253 1.41205 0.519531 5.45805 0.519531 10.447Z" fill="white"/>
</mask>
<g mask="url(#mask12)">
<path fill-rule="evenodd" clip-rule="evenodd" d="M9.57775 5.40833C4.49375 5.40833 0.357754 9.29333 0.285754 13.9353C0.284754 14.0423 0.284754 14.1483 0.287754 14.2553C0.313754 15.3503 0.571754 16.3963 1.01775 17.3483C2.42875 15.9263 5.73075 14.9283 9.57775 14.9283C13.4248 14.9283 16.7248 15.9263 18.1368 17.3483C18.5848 16.3943 18.8408 15.3483 18.8678 14.2543C18.8698 14.1473 18.8708 14.0403 18.8688 13.9313C18.7948 9.29133 14.6618 5.40833 9.57775 5.40833Z" fill="#0098D8"/>
</g>
<mask id="mask13" mask-type="alpha" maskUnits="userSpaceOnUse" x="0" y="1" width="19" height="19">
<path fill-rule="evenodd" clip-rule="evenodd" d="M0.519531 10.447C0.519531 15.439 4.56353 19.483 9.55453 19.483C14.5455 19.483 18.5895 15.4381 18.5895 10.447C18.5895 5.45805 14.5455 1.41205 9.55353 1.41205C4.56253 1.41205 0.519531 5.45805 0.519531 10.447Z" fill="white"/>
</mask>
<g mask="url(#mask13)">
<path fill-rule="evenodd" clip-rule="evenodd" d="M9.57404 5.48846C4.50904 5.48846 0.385035 9.34746 0.308035 13.9435C0.306035 14.0505 0.306035 14.1565 0.309035 14.2605C0.334035 15.3505 0.591035 16.3895 1.03803 17.3385C2.44403 15.9275 5.73804 14.9385 9.57404 14.9385C13.412 14.9385 16.704 15.9275 18.11 17.3385C18.559 16.3885 18.814 15.3495 18.84 14.2595C18.843 14.1545 18.843 14.0495 18.841 13.9415C18.761 9.34546 14.641 5.48846 9.57404 5.48846Z" fill="#009AD9"/>
</g>
<mask id="mask14" mask-type="alpha" maskUnits="userSpaceOnUse" x="0" y="1" width="19" height="19">
<path fill-rule="evenodd" clip-rule="evenodd" d="M0.519531 10.447C0.519531 15.439 4.56353 19.483 9.55453 19.483C14.5455 19.483 18.5895 15.4381 18.5895 10.447C18.5895 5.45805 14.5455 1.41205 9.55353 1.41205C4.56253 1.41205 0.519531 5.45805 0.519531 10.447Z" fill="white"/>
</mask>
<g mask="url(#mask14)">
<path fill-rule="evenodd" clip-rule="evenodd" d="M9.57322 5.56854C4.52522 5.56854 0.416217 9.40154 0.332217 13.9525C0.329217 14.0565 0.329217 14.1635 0.333217 14.2685C0.357217 15.3505 0.612217 16.3845 1.06122 17.3255C2.46222 15.9285 5.74722 14.9485 9.57322 14.9485C13.4012 14.9485 16.6842 15.9285 18.0872 17.3255C18.5362 16.3835 18.7912 15.3495 18.8152 14.2675C18.8172 14.1615 18.8172 14.0565 18.8152 13.9505C18.7292 9.39954 14.6232 5.56854 9.57322 5.56854Z" fill="#009CDB"/>
</g>
<mask id="mask15" mask-type="alpha" maskUnits="userSpaceOnUse" x="0" y="1" width="19" height="19">
<path fill-rule="evenodd" clip-rule="evenodd" d="M0.519531 10.447C0.519531 15.439 4.56353 19.483 9.55453 19.483C14.5455 19.483 18.5895 15.4381 18.5895 10.447C18.5895 5.45805 14.5455 1.41205 9.55353 1.41205C4.56253 1.41205 0.519531 5.45805 0.519531 10.447Z" fill="white"/>
</mask>
<g mask="url(#mask15)">
<path fill-rule="evenodd" clip-rule="evenodd" d="M9.57202 5.64764C4.54102 5.64764 0.445016 9.45564 0.355016 13.9626C0.353016 14.0666 0.353016 14.1706 0.355016 14.2756C0.377016 15.3506 0.633016 16.3786 1.08002 17.3136C2.47902 15.9296 5.75602 14.9596 9.57202 14.9596C13.388 14.9596 16.664 15.9296 18.063 17.3136C18.511 16.3766 18.766 15.3506 18.788 14.2736C18.791 14.1686 18.791 14.0636 18.788 13.9576C18.697 9.45364 14.604 5.64764 9.57202 5.64764Z" fill="#009EDC"/>
</g>
<mask id="mask16" mask-type="alpha" maskUnits="userSpaceOnUse" x="0" y="1" width="19" height="19">
<path fill-rule="evenodd" clip-rule="evenodd" d="M0.519531 10.447C0.519531 15.439 4.56353 19.483 9.55453 19.483C14.5455 19.483 18.5895 15.4381 18.5895 10.447C18.5895 5.45805 14.5455 1.41205 9.55353 1.41205C4.56253 1.41205 0.519531 5.45805 0.519531 10.447Z" fill="white"/>
</mask>
<g mask="url(#mask16)">
<path fill-rule="evenodd" clip-rule="evenodd" d="M9.57004 5.7287C4.55704 5.7287 0.474043 9.5097 0.379043 13.9707C0.377043 14.0757 0.376043 14.1787 0.378043 14.2817C0.399043 15.3507 0.654043 16.3737 1.10104 17.3027C2.49704 15.9297 5.76504 14.9687 9.57004 14.9687C13.377 14.9687 16.644 15.9297 18.039 17.3027C18.488 16.3737 18.741 15.3507 18.763 14.2817C18.765 14.1757 18.764 14.0717 18.762 13.9667C18.665 9.5067 14.587 5.7287 9.57004 5.7287Z" fill="#00A0DD"/>
</g>
<mask id="mask17" mask-type="alpha" maskUnits="userSpaceOnUse" x="0" y="1" width="19" height="19">
<path fill-rule="evenodd" clip-rule="evenodd" d="M0.519531 10.447C0.519531 15.439 4.56353 19.483 9.55453 19.483C14.5455 19.483 18.5895 15.4381 18.5895 10.447C18.5895 5.45805 14.5455 1.41205 9.55353 1.41205C4.56253 1.41205 0.519531 5.45805 0.519531 10.447Z" fill="white"/>
</mask>
<g mask="url(#mask17)">
<path fill-rule="evenodd" clip-rule="evenodd" d="M9.57174 5.80774C4.57474 5.80774 0.505738 9.56374 0.404738 13.9787C0.401738 14.0817 0.401738 14.1857 0.403738 14.2877C0.423738 15.3527 0.677738 16.3677 1.12474 17.2897C2.51574 15.9317 5.77574 14.9787 9.57174 14.9787C13.3677 14.9787 16.6267 15.9317 18.0177 17.2897C18.4667 16.3677 18.7197 15.3507 18.7387 14.2867C18.7407 14.1837 18.7407 14.0787 18.7387 13.9747C18.6347 9.56074 14.5707 5.80774 9.57174 5.80774Z" fill="#00A2DE"/>
</g>
<mask id="mask18" mask-type="alpha" maskUnits="userSpaceOnUse" x="0" y="1" width="19" height="19">
<path fill-rule="evenodd" clip-rule="evenodd" d="M0.519531 10.447C0.519531 15.439 4.56353 19.483 9.55453 19.483C14.5455 19.483 18.5895 15.4381 18.5895 10.447C18.5895 5.45805 14.5455 1.41205 9.55353 1.41205C4.56253 1.41205 0.519531 5.45805 0.519531 10.447Z" fill="white"/>
</mask>
<g mask="url(#mask18)">
<path fill-rule="evenodd" clip-rule="evenodd" d="M9.56908 5.88885C4.59008 5.88885 0.534078 9.61686 0.426078 13.9879C0.423078 14.0899 0.423078 14.1939 0.426078 14.2949C0.444078 15.3529 0.698078 16.3619 1.14608 17.2799C2.53308 15.9319 5.78408 14.9889 9.56908 14.9889C13.3551 14.9889 16.6051 15.9319 17.9921 17.2799C18.4421 16.3609 18.6941 15.3509 18.7131 14.2949C18.7141 14.1919 18.7141 14.0879 18.7111 13.9839C18.6021 9.61486 14.5501 5.88885 9.56908 5.88885Z" fill="#00A4E0"/>
</g>
<mask id="mask19" mask-type="alpha" maskUnits="userSpaceOnUse" x="0" y="1" width="19" height="19">
<path fill-rule="evenodd" clip-rule="evenodd" d="M0.519531 10.447C0.519531 15.439 4.56353 19.483 9.55453 19.483C14.5455 19.483 18.5895 15.4381 18.5895 10.447C18.5895 5.45805 14.5455 1.41205 9.55353 1.41205C4.56253 1.41205 0.519531 5.45805 0.519531 10.447Z" fill="white"/>
</mask>
<g mask="url(#mask19)">
<path fill-rule="evenodd" clip-rule="evenodd" d="M9.56627 5.96985C4.60527 5.96985 0.563266 9.67185 0.449266 13.9958C0.447266 14.0988 0.447266 14.1998 0.447266 14.3028C0.465266 15.3528 0.719266 16.3568 1.16627 17.2678C2.54927 15.9338 5.79127 14.9978 9.56627 14.9978C13.3433 14.9978 16.5843 15.9338 17.9673 17.2678C18.4173 16.3548 18.6703 15.3528 18.6863 14.3028C18.6883 14.1988 18.6873 14.0948 18.6843 13.9918C18.5693 9.66785 14.5303 5.96985 9.56627 5.96985Z" fill="#00A6E1"/>
</g>
<mask id="mask20" mask-type="alpha" maskUnits="userSpaceOnUse" x="0" y="1" width="19" height="19">
<path fill-rule="evenodd" clip-rule="evenodd" d="M0.519531 10.447C0.519531 15.439 4.56353 19.483 9.55453 19.483C14.5455 19.483 18.5895 15.4381 18.5895 10.447C18.5895 5.45805 14.5455 1.41205 9.55353 1.41205C4.56253 1.41205 0.519531 5.45805 0.519531 10.447Z" fill="white"/>
</mask>
<g mask="url(#mask20)">
<path fill-rule="evenodd" clip-rule="evenodd" d="M9.56579 6.04791C4.62179 6.04791 0.592793 9.72591 0.472793 14.0059C0.470793 14.1069 0.469793 14.2069 0.471793 14.3089C0.486793 15.3529 0.740793 16.3509 1.18879 17.2559C2.56679 15.9339 5.80079 15.0089 9.56579 15.0089C13.3318 15.0089 16.5648 15.9339 17.9428 17.2559C18.3928 16.3489 18.6458 15.3529 18.6598 14.3089C18.6618 14.2049 18.6598 14.1039 18.6578 13.9999C18.5368 9.72191 14.5128 6.04791 9.56579 6.04791Z" fill="#00A8E2"/>
</g>
<mask id="mask21" mask-type="alpha" maskUnits="userSpaceOnUse" x="0" y="1" width="19" height="19">
<path fill-rule="evenodd" clip-rule="evenodd" d="M0.519531 10.447C0.519531 15.439 4.56353 19.483 9.55453 19.483C14.5455 19.483 18.5895 15.4381 18.5895 10.447C18.5895 5.45805 14.5455 1.41205 9.55353 1.41205C4.56253 1.41205 0.519531 5.45805 0.519531 10.447Z" fill="white"/>
</mask>
<g mask="url(#mask21)">
<path fill-rule="evenodd" clip-rule="evenodd" d="M9.5645 6.12909C4.6385 6.12909 0.622501 9.77909 0.498501 14.0141C0.494501 14.1131 0.493501 14.2151 0.494501 14.3171C0.507501 15.3541 0.761501 16.3451 1.2095 17.2441C2.5855 15.9361 5.8095 15.0191 9.5645 15.0191C13.3205 15.0191 16.5445 15.9361 17.9195 17.2441C18.3705 16.3441 18.6215 15.3531 18.6355 14.3151C18.6365 14.2131 18.6355 14.1111 18.6325 14.0091C18.5035 9.77509 14.4935 6.12909 9.5645 6.12909Z" fill="#00AAE4"/>
</g>
<mask id="mask22" mask-type="alpha" maskUnits="userSpaceOnUse" x="0" y="1" width="19" height="19">
<path fill-rule="evenodd" clip-rule="evenodd" d="M0.519531 10.447C0.519531 15.439 4.56353 19.483 9.55453 19.483C14.5455 19.483 18.5895 15.4381 18.5895 10.447C18.5895 5.45805 14.5455 1.41205 9.55353 1.41205C4.56253 1.41205 0.519531 5.45805 0.519531 10.447Z" fill="white"/>
</mask>
<g mask="url(#mask22)">
<path fill-rule="evenodd" clip-rule="evenodd" d="M9.56362 6.20917C4.65462 6.20917 0.651619 9.83317 0.520619 14.0222C0.517619 14.1232 0.516619 14.2232 0.518619 14.3222C0.529619 15.3542 0.782619 16.3382 1.23062 17.2322C2.60362 15.9362 5.81962 15.0292 9.56362 15.0292C13.3086 15.0292 16.5246 15.9362 17.8956 17.2322C18.3466 16.3382 18.5976 15.3542 18.6096 14.3212C18.6106 14.2202 18.6096 14.1192 18.6066 14.0182C18.4726 9.82917 14.4756 6.20917 9.56362 6.20917Z" fill="#00ADE5"/>
</g>
<mask id="mask23" mask-type="alpha" maskUnits="userSpaceOnUse" x="0" y="1" width="19" height="19">
<path fill-rule="evenodd" clip-rule="evenodd" d="M0.519531 10.447C0.519531 15.439 4.56353 19.483 9.55453 19.483C14.5455 19.483 18.5895 15.4381 18.5895 10.447C18.5895 5.45805 14.5455 1.41205 9.55353 1.41205C4.56253 1.41205 0.519531 5.45805 0.519531 10.447Z" fill="white"/>
</mask>
<g mask="url(#mask23)">
<path fill-rule="evenodd" clip-rule="evenodd" d="M9.56238 6.28925C4.67038 6.28925 0.682376 9.88724 0.545376 14.0312C0.541376 14.1302 0.540376 14.2292 0.541376 14.3292C0.553376 15.3532 0.804376 16.3342 1.25338 17.2212C2.62138 15.9372 5.82838 15.0382 9.56238 15.0382C13.2984 15.0382 16.5044 15.9372 17.8724 17.2212C18.3224 16.3322 18.5734 15.3532 18.5844 14.3292C18.5854 14.2272 18.5834 14.1262 18.5804 14.0252C18.4414 9.88324 14.4574 6.28825 9.56238 6.28925Z" fill="#00AFE6"/>
</g>
<mask id="mask24" mask-type="alpha" maskUnits="userSpaceOnUse" x="0" y="1" width="19" height="19">
<path fill-rule="evenodd" clip-rule="evenodd" d="M0.519531 10.447C0.519531 15.439 4.56353 19.483 9.55453 19.483C14.5455 19.483 18.5895 15.4381 18.5895 10.447C18.5895 5.45805 14.5455 1.41205 9.55353 1.41205C4.56253 1.41205 0.519531 5.45805 0.519531 10.447Z" fill="white"/>
</mask>
<g mask="url(#mask24)">
<path fill-rule="evenodd" clip-rule="evenodd" d="M9.56082 6.3692C4.68581 6.3692 0.710814 9.9402 0.568814 14.0402C0.564814 14.1392 0.563814 14.2372 0.564814 14.3362C0.573814 15.3532 0.826814 16.3272 1.27481 17.2102C2.63881 15.9382 5.83682 15.0492 9.56082 15.0492C13.2858 15.0492 16.4848 15.9382 17.8478 17.2102C18.2988 16.3262 18.5478 15.3532 18.5588 14.3352C18.5588 14.2352 18.5578 14.1352 18.5548 14.0352C18.4088 9.9362 14.4388 6.3692 9.56082 6.3692Z" fill="#00B1E8"/>
</g>
<mask id="mask25" mask-type="alpha" maskUnits="userSpaceOnUse" x="0" y="1" width="19" height="19">
<path fill-rule="evenodd" clip-rule="evenodd" d="M0.519531 10.447C0.519531 15.439 4.56353 19.483 9.55453 19.483C14.5455 19.483 18.5895 15.4381 18.5895 10.447C18.5895 5.45805 14.5455 1.41205 9.55353 1.41205C4.56253 1.41205 0.519531 5.45805 0.519531 10.447Z" fill="white"/>
</mask>
<g mask="url(#mask25)">
<path fill-rule="evenodd" clip-rule="evenodd" d="M9.56154 6.44934C4.70254 6.44934 0.741538 9.99434 0.592538 14.0493C0.589538 14.1473 0.586538 14.2443 0.588538 14.3423C0.596538 15.3533 0.847538 16.3223 1.29654 17.1973C2.65654 15.9393 5.84654 15.0603 9.56154 15.0603C13.2755 15.0603 16.4645 15.9393 17.8255 17.1973C18.2765 16.3193 18.5255 15.3533 18.5345 14.3423C18.5345 14.2423 18.5335 14.1423 18.5295 14.0443C18.3765 9.99034 14.4205 6.44934 9.56154 6.44934Z" fill="#00B3E9"/>
</g>
<mask id="mask26" mask-type="alpha" maskUnits="userSpaceOnUse" x="0" y="1" width="19" height="19">
<path fill-rule="evenodd" clip-rule="evenodd" d="M0.519531 10.447C0.519531 15.439 4.56353 19.483 9.55453 19.483C14.5455 19.483 18.5895 15.4381 18.5895 10.447C18.5895 5.45805 14.5455 1.41205 9.55353 1.41205C4.56253 1.41205 0.519531 5.45805 0.519531 10.447Z" fill="white"/>
</mask>
<g mask="url(#mask26)">
<path fill-rule="evenodd" clip-rule="evenodd" d="M9.55933 6.52948C4.71933 6.52948 0.770328 10.0485 0.616328 14.0565C0.612328 14.1545 0.611328 14.2525 0.611328 14.3485C0.618328 15.3535 0.869328 16.3165 1.31733 17.1855C2.67433 15.9395 5.85533 15.0685 9.55933 15.0685C13.2643 15.0685 16.4453 15.9395 17.8013 17.1855C18.2523 16.3145 18.5003 15.3535 18.5083 14.3485C18.5083 14.2505 18.5063 14.1505 18.5023 14.0525C18.3443 10.0455 14.4023 6.52948 9.55933 6.52948Z" fill="#00B5EA"/>
</g>
<mask id="mask27" mask-type="alpha" maskUnits="userSpaceOnUse" x="0" y="1" width="19" height="19">
<path fill-rule="evenodd" clip-rule="evenodd" d="M0.519531 10.447C0.519531 15.439 4.56353 19.483 9.55453 19.483C14.5455 19.483 18.5895 15.4381 18.5895 10.447C18.5895 5.45805 14.5455 1.41205 9.55353 1.41205C4.56253 1.41205 0.519531 5.45805 0.519531 10.447Z" fill="white"/>
</mask>
<g mask="url(#mask27)">
<path fill-rule="evenodd" clip-rule="evenodd" d="M9.55755 6.60956C4.73455 6.60956 0.80055 10.1016 0.63955 14.0666C0.63555 14.1626 0.63355 14.2596 0.63555 14.3566C0.63955 15.3546 0.88955 16.3106 1.33855 17.1746C2.69155 15.9416 5.86455 15.0796 9.55755 15.0796C13.2526 15.0796 16.4246 15.9416 17.7776 17.1746C18.2286 16.3086 18.4766 15.3546 18.4816 14.3566C18.4826 14.2566 18.4806 14.1586 18.4766 14.0606C18.3126 10.0996 14.3836 6.60956 9.55755 6.60956Z" fill="#00B8EC"/>
</g>
<mask id="mask28" mask-type="alpha" maskUnits="userSpaceOnUse" x="0" y="1" width="19" height="19">
<path fill-rule="evenodd" clip-rule="evenodd" d="M0.519531 10.447C0.519531 15.439 4.56353 19.483 9.55453 19.483C14.5455 19.483 18.5895 15.4381 18.5895 10.447C18.5895 5.45805 14.5455 1.41205 9.55353 1.41205C4.56253 1.41205 0.519531 5.45805 0.519531 10.447Z" fill="white"/>
</mask>
<g mask="url(#mask28)">
<path fill-rule="evenodd" clip-rule="evenodd" d="M9.55645 6.68958C4.75145 6.68958 0.829453 10.1576 0.664453 14.0756C0.659453 14.1706 0.657453 14.2676 0.658453 14.3626C0.660453 15.3546 0.910453 16.3046 1.36145 17.1636C2.71045 15.9426 5.87345 15.0876 9.55645 15.0876C13.2415 15.0876 16.4055 15.9426 17.7525 17.1636C18.2045 16.3036 18.4525 15.3546 18.4565 14.3626C18.4565 14.2646 18.4545 14.1666 18.4525 14.0696C18.2805 10.1536 14.3655 6.68958 9.55645 6.68958Z" fill="#03BAED"/>
</g>
<mask id="mask29" mask-type="alpha" maskUnits="userSpaceOnUse" x="0" y="1" width="19" height="19">
<path fill-rule="evenodd" clip-rule="evenodd" d="M0.519531 10.447C0.519531 15.439 4.56353 19.483 9.55453 19.483C14.5455 19.483 18.5895 15.4381 18.5895 10.447C18.5895 5.45805 14.5455 1.41205 9.55353 1.41205C4.56253 1.41205 0.519531 5.45805 0.519531 10.447Z" fill="white"/>
</mask>
<g mask="url(#mask29)">
<path fill-rule="evenodd" clip-rule="evenodd" d="M9.55569 6.77063C4.76669 6.77063 0.859687 10.2096 0.685688 14.0836C0.681687 14.1786 0.679688 14.2736 0.679688 14.3696C0.682688 15.3546 0.931688 16.2986 1.38169 17.1526C2.72669 15.9436 5.88269 15.0986 9.55569 15.0986C13.2287 15.0986 16.3847 15.9436 17.7287 17.1526C18.1807 16.2976 18.4287 15.3566 18.4297 14.3696C18.4297 14.2726 18.4287 14.1746 18.4227 14.0776C18.2477 10.2076 14.3457 6.77063 9.55569 6.77063Z" fill="#12BCEF"/>
</g>
<mask id="mask30" mask-type="alpha" maskUnits="userSpaceOnUse" x="0" y="1" width="19" height="19">
<path fill-rule="evenodd" clip-rule="evenodd" d="M0.519531 10.447C0.519531 15.439 4.56353 19.483 9.55453 19.483C14.5455 19.483 18.5895 15.4381 18.5895 10.447C18.5895 5.45805 14.5455 1.41205 9.55353 1.41205C4.56253 1.41205 0.519531 5.45805 0.519531 10.447Z" fill="white"/>
</mask>
<g mask="url(#mask30)">
<path fill-rule="evenodd" clip-rule="evenodd" d="M9.55413 6.84973C4.78313 6.84973 0.888125 10.2637 0.709125 14.0917C0.705125 14.1857 0.703125 14.2817 0.703125 14.3757C0.704125 15.3567 0.953125 16.2937 1.40213 17.1397C2.74413 15.9447 5.89113 15.1107 9.55413 15.1107C13.2171 15.1107 16.3641 15.9447 17.7041 17.1397C18.1571 16.2907 18.4031 15.3567 18.4041 14.3757C18.4051 14.2797 18.4021 14.1817 18.3981 14.0857C18.2161 10.2597 14.3261 6.84973 9.55413 6.84973Z" fill="#1BBFF0"/>
</g>
<mask id="mask31" mask-type="alpha" maskUnits="userSpaceOnUse" x="0" y="1" width="19" height="19">
<path fill-rule="evenodd" clip-rule="evenodd" d="M0.519531 10.447C0.519531 15.439 4.56353 19.483 9.55453 19.483C14.5455 19.483 18.5895 15.4381 18.5895 10.447C18.5895 5.45805 14.5455 1.41205 9.55353 1.41205C4.56253 1.41205 0.519531 5.45805 0.519531 10.447Z" fill="white"/>
</mask>
<g mask="url(#mask31)">
<path fill-rule="evenodd" clip-rule="evenodd" d="M9.55356 15.1193C13.2076 15.1193 16.3456 15.9443 17.6826 17.1293C18.1336 16.2863 18.3796 15.3563 18.3796 14.3823C18.3796 10.4863 14.4296 6.93127 9.55356 6.93127C4.68256 6.93127 0.726562 10.4863 0.726562 14.3823C0.726562 15.3563 0.975563 16.2883 1.42456 17.1293C2.76456 15.9443 5.90156 15.1193 9.55356 15.1193Z" fill="#20C3F3"/>
</g>
<mask id="mask32" mask-type="alpha" maskUnits="userSpaceOnUse" x="0" y="1" width="19" height="19">
<path fill-rule="evenodd" clip-rule="evenodd" d="M0.519531 10.447C0.519531 15.439 4.56353 19.483 9.55453 19.483C14.5455 19.483 18.5895 15.4381 18.5895 10.447C18.5895 5.45805 14.5455 1.41205 9.55353 1.41205C4.56253 1.41205 0.519531 5.45805 0.519531 10.447Z" fill="white"/>
</mask>
<g mask="url(#mask32)">
<path fill-rule="evenodd" clip-rule="evenodd" d="M9.55424 15.1428C13.2022 15.1428 16.3372 15.9628 17.6722 17.1388C18.1222 16.3008 18.3682 15.3768 18.3682 14.4118C18.3682 10.5408 14.4242 7.00281 9.55424 7.00281C4.69024 7.00281 0.740234 10.5408 0.740234 14.4108C0.740234 15.3768 0.987234 16.3038 1.43623 17.1388C2.77323 15.9628 5.90624 15.1428 9.55424 15.1428Z" fill="#32C5F3"/>
</g>
<mask id="mask33" mask-type="alpha" maskUnits="userSpaceOnUse" x="0" y="1" width="19" height="19">
<path fill-rule="evenodd" clip-rule="evenodd" d="M0.519531 10.447C0.519531 15.439 4.56353 19.483 9.55453 19.483C14.5455 19.483 18.5895 15.4381 18.5895 10.447C18.5895 5.45805 14.5455 1.41205 9.55353 1.41205C4.56253 1.41205 0.519531 5.45805 0.519531 10.447Z" fill="white"/>
</mask>
<g mask="url(#mask33)">
<path fill-rule="evenodd" clip-rule="evenodd" d="M9.55395 15.1651C13.198 15.1651 16.327 15.9811 17.661 17.1481C18.111 16.3171 18.356 15.3981 18.356 14.4381C18.356 10.5941 14.417 7.07611 9.55395 7.07611C4.69595 7.07611 0.751953 10.5941 0.751953 14.4381C0.751953 15.3981 0.997953 16.3181 1.44695 17.1481C2.78195 15.9811 5.91095 15.1651 9.55395 15.1651Z" fill="#3FC6F3"/>
</g>
<mask id="mask34" mask-type="alpha" maskUnits="userSpaceOnUse" x="0" y="1" width="19" height="19">
<path fill-rule="evenodd" clip-rule="evenodd" d="M0.519531 10.447C0.519531 15.439 4.56353 19.483 9.55453 19.483C14.5455 19.483 18.5895 15.4381 18.5895 10.447C18.5895 5.45805 14.5455 1.41205 9.55353 1.41205C4.56253 1.41205 0.519531 5.45805 0.519531 10.447Z" fill="white"/>
</mask>
<g mask="url(#mask34)">
<path fill-rule="evenodd" clip-rule="evenodd" d="M9.55468 15.1876C13.1927 15.1876 16.3177 15.9986 17.6497 17.1586C18.0987 16.3326 18.3447 15.4206 18.3447 14.4666C18.3447 10.6476 14.4107 7.15063 9.55468 7.15063C4.70267 7.15063 0.763672 10.6476 0.763672 14.4666C0.763672 15.4196 1.01167 16.3336 1.45867 17.1586C2.79267 15.9986 5.91567 15.1876 9.55468 15.1876Z" fill="#4AC8F4"/>
</g>
<mask id="mask35" mask-type="alpha" maskUnits="userSpaceOnUse" x="0" y="1" width="19" height="19">
<path fill-rule="evenodd" clip-rule="evenodd" d="M0.519531 10.447C0.519531 15.439 4.56353 19.483 9.55453 19.483C14.5455 19.483 18.5895 15.4381 18.5895 10.447C18.5895 5.45805 14.5455 1.41205 9.55353 1.41205C4.56253 1.41205 0.519531 5.45805 0.519531 10.447Z" fill="white"/>
</mask>
<g mask="url(#mask35)">
<path fill-rule="evenodd" clip-rule="evenodd" d="M9.55339 15.211C13.1864 15.211 16.3074 16.017 17.6374 17.169C18.0864 16.348 18.3314 15.442 18.3314 14.494C18.3314 10.7 14.4024 7.22504 9.55339 7.22504C4.70739 7.22504 0.775391 10.7 0.775391 14.494C0.775391 15.442 1.02139 16.35 1.46739 17.169C2.79939 16.017 5.92039 15.211 9.55339 15.211Z" fill="#54C9F4"/>
</g>
<mask id="mask36" mask-type="alpha" maskUnits="userSpaceOnUse" x="0" y="1" width="19" height="19">
<path fill-rule="evenodd" clip-rule="evenodd" d="M0.519531 10.447C0.519531 15.439 4.56353 19.483 9.55453 19.483C14.5455 19.483 18.5895 15.4381 18.5895 10.447C18.5895 5.45805 14.5455 1.41205 9.55353 1.41205C4.56253 1.41205 0.519531 5.45805 0.519531 10.447Z" fill="white"/>
</mask>
<g mask="url(#mask36)">
<path fill-rule="evenodd" clip-rule="evenodd" d="M9.55316 15.2335C13.1822 15.2335 16.2982 16.0335 17.6262 17.1785C18.0742 16.3635 18.3192 15.4625 18.3192 14.5215C18.3192 10.7545 14.3962 7.29755 9.55316 7.29755C4.71416 7.29755 0.785156 10.7545 0.785156 14.5215C0.785156 15.4625 1.03216 16.3665 1.47916 17.1785C2.80816 16.0335 5.92516 15.2355 9.55316 15.2335Z" fill="#5CCBF4"/>
</g>
<mask id="mask37" mask-type="alpha" maskUnits="userSpaceOnUse" x="0" y="1" width="19" height="19">
<path fill-rule="evenodd" clip-rule="evenodd" d="M0.519531 10.447C0.519531 15.439 4.56353 19.483 9.55453 19.483C14.5455 19.483 18.5895 15.4381 18.5895 10.447C18.5895 5.45805 14.5455 1.41205 9.55353 1.41205C4.56253 1.41205 0.519531 5.45805 0.519531 10.447Z" fill="white"/>
</mask>
<g mask="url(#mask37)">
<path fill-rule="evenodd" clip-rule="evenodd" d="M9.55383 15.2569C13.1778 15.2569 16.2888 16.0509 17.6158 17.1889C18.0628 16.3799 18.3078 15.4859 18.3078 14.5499C18.3078 10.8069 14.3898 7.37195 9.55383 7.37195C4.72083 7.37195 0.798828 10.8069 0.798828 14.5499C0.798828 15.4859 1.04483 16.3809 1.48983 17.1889C2.81683 16.0509 5.92983 15.2569 9.55383 15.2569Z" fill="#64CDF5"/>
</g>
<mask id="mask38" mask-type="alpha" maskUnits="userSpaceOnUse" x="0" y="1" width="19" height="19">
<path fill-rule="evenodd" clip-rule="evenodd" d="M0.519531 10.447C0.519531 15.439 4.56353 19.483 9.55453 19.483C14.5455 19.483 18.5895 15.4381 18.5895 10.447C18.5895 5.45805 14.5455 1.41205 9.55353 1.41205C4.56253 1.41205 0.519531 5.45805 0.519531 10.447Z" fill="white"/>
</mask>
<g mask="url(#mask38)">
<path fill-rule="evenodd" clip-rule="evenodd" d="M9.55355 15.2794C13.1725 15.2794 16.2795 16.0694 17.6045 17.1984C18.0515 16.3944 18.2955 15.5074 18.2955 14.5774C18.2955 10.8604 14.3835 7.44543 9.55355 7.44543C4.72655 7.44543 0.810547 10.8604 0.810547 14.5774C0.810547 15.5074 1.05555 16.3964 1.50055 17.1984C2.82655 16.0694 5.93555 15.2794 9.55355 15.2794Z" fill="#6CCEF5"/>
</g>
<mask id="mask39" mask-type="alpha" maskUnits="userSpaceOnUse" x="0" y="1" width="19" height="19">
<path fill-rule="evenodd" clip-rule="evenodd" d="M0.519531 10.447C0.519531 15.439 4.56353 19.483 9.55453 19.483C14.5455 19.483 18.5895 15.4381 18.5895 10.447C18.5895 5.45805 14.5455 1.41205 9.55353 1.41205C4.56253 1.41205 0.519531 5.45805 0.519531 10.447Z" fill="white"/>
</mask>
<g mask="url(#mask39)">
<path fill-rule="evenodd" clip-rule="evenodd" d="M9.55326 15.3028C13.1663 15.3028 16.2693 16.0878 17.5933 17.2088C18.0383 16.4098 18.2833 15.5298 18.2833 14.6048C18.2833 10.9128 14.3763 7.51984 9.55326 7.51984C4.73326 7.51984 0.822266 10.9128 0.822266 14.6048C0.822266 15.5298 1.06627 16.4108 1.51027 17.2098C2.83627 16.0878 5.93926 15.3038 9.55326 15.3028Z" fill="#73D0F5"/>
</g>
<mask id="mask40" mask-type="alpha" maskUnits="userSpaceOnUse" x="0" y="1" width="19" height="19">
<path fill-rule="evenodd" clip-rule="evenodd" d="M0.519531 10.447C0.519531 15.439 4.56353 19.483 9.55453 19.483C14.5455 19.483 18.5895 15.4381 18.5895 10.447C18.5895 5.45805 14.5455 1.41205 9.55353 1.41205C4.56253 1.41205 0.519531 5.45805 0.519531 10.447Z" fill="white"/>
</mask>
<g mask="url(#mask40)">
<path fill-rule="evenodd" clip-rule="evenodd" d="M9.55298 15.3264C13.161 15.3264 16.26 16.1044 17.582 17.2194C18.027 16.4254 18.271 15.5504 18.271 14.6344C18.271 10.9674 14.369 7.59338 9.55298 7.59338C4.73998 7.59338 0.833984 10.9674 0.833984 14.6324C0.833984 15.5514 1.07898 16.4284 1.52198 17.2194C2.84498 16.1044 5.94498 15.3264 9.55298 15.3264Z" fill="#7AD2F6"/>
</g>
<mask id="mask41" mask-type="alpha" maskUnits="userSpaceOnUse" x="0" y="1" width="19" height="19">
<path fill-rule="evenodd" clip-rule="evenodd" d="M0.519531 10.447C0.519531 15.439 4.56353 19.483 9.55453 19.483C14.5455 19.483 18.5895 15.4381 18.5895 10.447C18.5895 5.45805 14.5455 1.41205 9.55353 1.41205C4.56253 1.41205 0.519531 5.45805 0.519531 10.447Z" fill="white"/>
</mask>
<g mask="url(#mask41)">
<path fill-rule="evenodd" clip-rule="evenodd" d="M9.5537 15.3488C13.1577 15.3488 16.2517 16.1228 17.5707 17.2288C18.0157 16.4418 18.2607 15.5728 18.2607 14.6618C18.2607 11.0198 14.3627 7.66577 9.5537 7.66577C4.7457 7.66577 0.845703 11.0198 0.845703 14.6608C0.845703 15.5728 1.0917 16.4428 1.5337 17.2288C2.8547 16.1228 5.9497 15.3488 9.5537 15.3488Z" fill="#81D3F6"/>
</g>
<mask id="mask42" mask-type="alpha" maskUnits="userSpaceOnUse" x="0" y="1" width="19" height="19">
<path fill-rule="evenodd" clip-rule="evenodd" d="M0.519531 10.447C0.519531 15.439 4.56353 19.483 9.55453 19.483C14.5455 19.483 18.5895 15.4381 18.5895 10.447C18.5895 5.45805 14.5455 1.41205 9.55353 1.41205C4.56253 1.41205 0.519531 5.45805 0.519531 10.447Z" fill="white"/>
</mask>
<g mask="url(#mask42)">
<path fill-rule="evenodd" clip-rule="evenodd" d="M9.55342 15.3712C13.1524 15.3712 16.2414 16.1402 17.5604 17.2382C18.0034 16.4562 18.2484 15.5942 18.2484 14.6882C18.2484 11.0722 14.3554 7.74023 9.55342 7.74023C4.75242 7.74023 0.857422 11.0722 0.857422 14.6882C0.857422 15.5942 1.10142 16.4572 1.54442 17.2382C2.86342 16.1402 5.95442 15.3732 9.55342 15.3712Z" fill="#87D5F6"/>
</g>
<mask id="mask43" mask-type="alpha" maskUnits="userSpaceOnUse" x="0" y="1" width="19" height="19">
<path fill-rule="evenodd" clip-rule="evenodd" d="M0.519531 10.447C0.519531 15.439 4.56353 19.483 9.55453 19.483C14.5455 19.483 18.5895 15.4381 18.5895 10.447C18.5895 5.45805 14.5455 1.41205 9.55353 1.41205C4.56253 1.41205 0.519531 5.45805 0.519531 10.447Z" fill="white"/>
</mask>
<g mask="url(#mask43)">
<path fill-rule="evenodd" clip-rule="evenodd" d="M9.55509 15.3946C13.1491 15.3946 16.2341 16.1576 17.5511 17.2486C17.9931 16.4726 18.2371 15.6156 18.2371 14.7166C18.2371 11.1256 14.3501 7.81464 9.55509 7.81464C4.76109 7.81464 0.871094 11.1256 0.871094 14.7166C0.871094 15.6156 1.11509 16.4736 1.55609 17.2486C2.87509 16.1576 5.96109 15.3966 9.55509 15.3946Z" fill="#8ED7F7"/>
</g>
<mask id="mask44" mask-type="alpha" maskUnits="userSpaceOnUse" x="0" y="1" width="19" height="19">
<path fill-rule="evenodd" clip-rule="evenodd" d="M0.519531 10.447C0.519531 15.439 4.56353 19.483 9.55453 19.483C14.5455 19.483 18.5895 15.4381 18.5895 10.447C18.5895 5.45805 14.5455 1.41205 9.55353 1.41205C4.56253 1.41205 0.519531 5.45805 0.519531 10.447Z" fill="white"/>
</mask>
<g mask="url(#mask44)">
<path fill-rule="evenodd" clip-rule="evenodd" d="M9.55286 15.4172C13.1409 15.4172 16.2219 16.1752 17.5379 17.2592C17.9789 16.4872 18.2219 15.6382 18.2219 14.7442C18.2219 11.1802 14.3419 7.88916 9.55286 7.88916C4.76486 7.88916 0.880859 11.1802 0.880859 14.7442C0.880859 15.6382 1.12586 16.4882 1.56486 17.2592C2.88186 16.1752 5.96386 15.4192 9.55286 15.4172Z" fill="#94D9F7"/>
</g>
<mask id="mask45" mask-type="alpha" maskUnits="userSpaceOnUse" x="0" y="1" width="19" height="19">
<path fill-rule="evenodd" clip-rule="evenodd" d="M0.519531 10.447C0.519531 15.439 4.56353 19.483 9.55453 19.483C14.5455 19.483 18.5895 15.4381 18.5895 10.447C18.5895 5.45805 14.5455 1.41205 9.55353 1.41205C4.56253 1.41205 0.519531 5.45805 0.519531 10.447Z" fill="white"/>
</mask>
<g mask="url(#mask45)">
<path fill-rule="evenodd" clip-rule="evenodd" d="M9.55453 15.4395C13.1375 15.4395 16.2155 16.1925 17.5285 17.2685C17.9685 16.5015 18.2135 15.6575 18.2135 14.7725C18.2135 11.2325 14.3365 7.96051 9.55453 7.96051C4.77353 7.96051 0.894531 11.2325 0.894531 14.7725C0.894531 15.6585 1.13753 16.5035 1.57753 17.2685C2.89153 16.1925 5.97153 15.4415 9.55453 15.4395Z" fill="#9ADBF7"/>
</g>
<mask id="mask46" mask-type="alpha" maskUnits="userSpaceOnUse" x="0" y="1" width="19" height="19">
<path fill-rule="evenodd" clip-rule="evenodd" d="M0.519531 10.447C0.519531 15.439 4.56353 19.483 9.55453 19.483C14.5455 19.483 18.5895 15.4381 18.5895 10.447C18.5895 5.45805 14.5455 1.41205 9.55353 1.41205C4.56253 1.41205 0.519531 5.45805 0.519531 10.447Z" fill="white"/>
</mask>
<g mask="url(#mask46)">
<path fill-rule="evenodd" clip-rule="evenodd" d="M9.55425 15.463C13.1332 15.463 16.2062 16.211 17.5162 17.279C17.9562 16.519 18.2002 15.68 18.2002 14.8C18.2002 11.286 14.3302 8.03503 9.55425 8.03503C4.77925 8.03503 0.90625 11.286 0.90625 14.8C0.90625 15.68 1.14925 16.52 1.58825 17.279C2.90125 16.211 5.97525 15.465 9.55425 15.463Z" fill="#A0DDF8"/>
</g>
<mask id="mask47" mask-type="alpha" maskUnits="userSpaceOnUse" x="0" y="1" width="19" height="19">
<path fill-rule="evenodd" clip-rule="evenodd" d="M0.519531 10.447C0.519531 15.439 4.56353 19.483 9.55453 19.483C14.5455 19.483 18.5895 15.4381 18.5895 10.447C18.5895 5.45805 14.5455 1.41205 9.55353 1.41205C4.56253 1.41205 0.519531 5.45805 0.519531 10.447Z" fill="white"/>
</mask>
<g mask="url(#mask47)">
<path fill-rule="evenodd" clip-rule="evenodd" d="M9.55302 15.4864C13.127 15.4864 16.195 16.2284 17.505 17.2874C17.945 16.5334 18.188 15.7014 18.188 14.8294C18.188 11.3384 14.322 8.10742 9.55302 8.10742C4.78402 8.10742 0.916016 11.3384 0.916016 14.8294C0.916016 15.7014 1.15902 16.5354 1.59702 17.2884C2.90902 16.2284 5.97902 15.4874 9.55302 15.4864Z" fill="#A6DEF8"/>
</g>
<mask id="mask48" mask-type="alpha" maskUnits="userSpaceOnUse" x="0" y="1" width="19" height="19">
<path fill-rule="evenodd" clip-rule="evenodd" d="M0.519531 10.447C0.519531 15.439 4.56353 19.483 9.55453 19.483C14.5455 19.483 18.5895 15.4381 18.5895 10.447C18.5895 5.45805 14.5455 1.41205 9.55353 1.41205C4.56253 1.41205 0.519531 5.45805 0.519531 10.447Z" fill="white"/>
</mask>
<g mask="url(#mask48)">
<path fill-rule="evenodd" clip-rule="evenodd" d="M9.55369 15.5099C13.1227 15.5099 16.1877 16.2459 17.4947 17.2989C17.9327 16.5499 18.1767 15.7229 18.1767 14.8569C18.1767 11.3919 14.3157 8.18195 9.55369 8.18195C4.79169 8.18195 0.929688 11.3929 0.929688 14.8569C0.929688 15.7239 1.17169 16.5499 1.60869 17.2989C2.91869 16.2459 5.98469 15.5099 9.55369 15.5099Z" fill="#ACE0F9"/>
</g>
<mask id="mask49" mask-type="alpha" maskUnits="userSpaceOnUse" x="0" y="1" width="19" height="19">
<path fill-rule="evenodd" clip-rule="evenodd" d="M0.519531 10.447C0.519531 15.439 4.56353 19.483 9.55453 19.483C14.5455 19.483 18.5895 15.4381 18.5895 10.447C18.5895 5.45805 14.5455 1.41205 9.55353 1.41205C4.56253 1.41205 0.519531 5.45805 0.519531 10.447Z" fill="white"/>
</mask>
<g mask="url(#mask49)">
<path fill-rule="evenodd" clip-rule="evenodd" d="M9.55341 15.5323C13.1164 15.5323 16.1774 16.2633 17.4834 17.3083C17.9204 16.5643 18.1634 15.7443 18.1634 14.8843C18.1634 11.4443 14.3084 8.25635 9.55341 8.25635C4.79741 8.25635 0.941406 11.4443 0.941406 14.8843C0.941406 15.7443 1.18341 16.5663 1.61941 17.3083C2.92841 16.2633 5.98941 15.5333 9.55341 15.5323Z" fill="#B2E2F9"/>
</g>
<mask id="mask50" mask-type="alpha" maskUnits="userSpaceOnUse" x="0" y="1" width="19" height="19">
<path fill-rule="evenodd" clip-rule="evenodd" d="M0.519531 10.447C0.519531 15.439 4.56353 19.483 9.55453 19.483C14.5455 19.483 18.5895 15.4381 18.5895 10.447C18.5895 5.45805 14.5455 1.41205 9.55353 1.41205C4.56253 1.41205 0.519531 5.45805 0.519531 10.447Z" fill="white"/>
</mask>
<g mask="url(#mask50)">
<path fill-rule="evenodd" clip-rule="evenodd" d="M9.55412 15.5549C13.1141 15.5549 16.1691 16.2829 17.4731 17.3189C17.9101 16.5799 18.1531 15.7649 18.1531 14.9109C18.1531 11.4979 14.3031 8.32886 9.55412 8.32886C4.80512 8.32886 0.953125 11.4979 0.953125 14.9109C0.953125 15.7669 1.19613 16.5809 1.63212 17.3189C2.93812 16.2829 5.99512 15.5569 9.55412 15.5549Z" fill="#B8E4F9"/>
</g>
<mask id="mask51" mask-type="alpha" maskUnits="userSpaceOnUse" x="0" y="1" width="19" height="19">
<path fill-rule="evenodd" clip-rule="evenodd" d="M0.519531 10.447C0.519531 15.439 4.56353 19.483 9.55453 19.483C14.5455 19.483 18.5895 15.4381 18.5895 10.447C18.5895 5.45805 14.5455 1.41205 9.55353 1.41205C4.56253 1.41205 0.519531 5.45805 0.519531 10.447Z" fill="white"/>
</mask>
<g mask="url(#mask51)">
<path fill-rule="evenodd" clip-rule="evenodd" d="M9.55384 15.5793C13.1078 15.5793 16.1588 16.2993 17.4618 17.3293C17.8978 16.5963 18.1398 15.7873 18.1398 14.9383C18.1398 11.5513 14.2958 8.40326 9.55384 8.40326C4.81084 8.40326 0.964844 11.5533 0.964844 14.9383C0.964844 15.7883 1.20684 16.5983 1.64184 17.3293C2.94584 16.2993 5.99984 15.5803 9.55384 15.5793Z" fill="#BDE6FA"/>
</g>
<mask id="mask52" mask-type="alpha" maskUnits="userSpaceOnUse" x="0" y="1" width="19" height="19">
<path fill-rule="evenodd" clip-rule="evenodd" d="M0.519531 10.447C0.519531 15.439 4.56353 19.483 9.55453 19.483C14.5455 19.483 18.5895 15.4381 18.5895 10.447C18.5895 5.45805 14.5455 1.41205 9.55353 1.41205C4.56253 1.41205 0.519531 5.45805 0.519531 10.447Z" fill="white"/>
</mask>
<g mask="url(#mask52)">
<path fill-rule="evenodd" clip-rule="evenodd" d="M9.55356 15.6007C13.1016 15.6007 16.1496 16.3177 17.4516 17.3377C17.8856 16.6117 18.1286 15.8087 18.1286 14.9667C18.1286 11.6047 14.2886 8.47675 9.55356 8.47675C4.81656 8.47675 0.976562 11.6047 0.976562 14.9667C0.976562 15.8107 1.21856 16.6127 1.65256 17.3377C2.95556 16.3177 6.00456 15.6027 9.55356 15.6007Z" fill="#C3E8FA"/>
</g>
<mask id="mask53" mask-type="alpha" maskUnits="userSpaceOnUse" x="0" y="1" width="19" height="19">
<path fill-rule="evenodd" clip-rule="evenodd" d="M0.519531 10.447C0.519531 15.439 4.56353 19.483 9.55453 19.483C14.5455 19.483 18.5895 15.4381 18.5895 10.447C18.5895 5.45805 14.5455 1.41205 9.55353 1.41205C4.56253 1.41205 0.519531 5.45805 0.519531 10.447Z" fill="white"/>
</mask>
<g mask="url(#mask53)">
<path fill-rule="evenodd" clip-rule="evenodd" d="M9.55328 15.6231C13.0973 15.6231 16.1403 16.3351 17.4393 17.3491C17.8733 16.6271 18.1163 15.8311 18.1163 14.9941C18.1163 11.6571 14.2823 8.55115 9.55328 8.55115C4.82328 8.55115 0.988281 11.6581 0.988281 14.9941C0.988281 15.8311 1.22928 16.6271 1.66328 17.3491C2.96428 16.3351 6.01028 15.6261 9.55328 15.6231Z" fill="#C9EAFA"/>
</g>
<mask id="mask54" mask-type="alpha" maskUnits="userSpaceOnUse" x="0" y="1" width="19" height="19">
<path fill-rule="evenodd" clip-rule="evenodd" d="M0.519531 10.447C0.519531 15.439 4.56353 19.483 9.55453 19.483C14.5455 19.483 18.5895 15.4381 18.5895 10.447C18.5895 5.45805 14.5455 1.41205 9.55353 1.41205C4.56253 1.41205 0.519531 5.45805 0.519531 10.447Z" fill="white"/>
</mask>
<g mask="url(#mask54)">
<path fill-rule="evenodd" clip-rule="evenodd" d="M9.55395 15.6476C13.093 15.6476 16.132 16.3526 17.43 17.3576C17.862 16.6426 18.105 15.8506 18.105 15.0226C18.105 11.7106 14.275 8.62463 9.55395 8.62463C4.82995 8.62463 1.00195 11.7106 1.00195 15.0226C1.00195 15.8536 1.24195 16.6426 1.67495 17.3586C2.97295 16.3526 6.01495 15.6486 9.55395 15.6476Z" fill="#CEECFB"/>
</g>
<mask id="mask55" mask-type="alpha" maskUnits="userSpaceOnUse" x="0" y="1" width="19" height="19">
<path fill-rule="evenodd" clip-rule="evenodd" d="M0.519531 10.447C0.519531 15.439 4.56353 19.483 9.55453 19.483C14.5455 19.483 18.5895 15.4381 18.5895 10.447C18.5895 5.45805 14.5455 1.41205 9.55353 1.41205C4.56253 1.41205 0.519531 5.45805 0.519531 10.447Z" fill="white"/>
</mask>
<g mask="url(#mask55)">
<path fill-rule="evenodd" clip-rule="evenodd" d="M9.55372 15.6711C13.0887 15.6711 16.1217 16.3691 17.4167 17.3691C17.8497 16.6581 18.0927 15.8731 18.0927 15.0501C18.0927 11.7651 14.2687 8.69708 9.55372 8.69708C4.83572 8.69708 1.01172 11.7651 1.01172 15.0501C1.01172 15.8751 1.25372 16.6581 1.68572 17.3691C2.98272 16.3691 6.01972 15.6711 9.55372 15.6711Z" fill="#D4EEFB"/>
</g>
<mask id="mask56" mask-type="alpha" maskUnits="userSpaceOnUse" x="0" y="1" width="19" height="19">
<path fill-rule="evenodd" clip-rule="evenodd" d="M0.519531 10.447C0.519531 15.439 4.56353 19.483 9.55453 19.483C14.5455 19.483 18.5895 15.4381 18.5895 10.447C18.5895 5.45805 14.5455 1.41205 9.55353 1.41205C4.56253 1.41205 0.519531 5.45805 0.519531 10.447Z" fill="white"/>
</mask>
<g mask="url(#mask56)">
<path fill-rule="evenodd" clip-rule="evenodd" d="M9.55439 15.6935C13.0844 15.6935 16.1134 16.3875 17.4074 17.3795C17.8394 16.6735 18.0814 15.8945 18.0814 15.0795C18.0814 11.8175 14.2624 8.77155 9.55439 8.77155C4.84339 8.77155 1.02539 11.8185 1.02539 15.0775C1.02539 15.8965 1.26539 16.6735 1.69639 17.3795C2.99239 16.3875 6.02439 15.6945 9.55439 15.6935Z" fill="#D9F0FB"/>
</g>
<mask id="mask57" mask-type="alpha" maskUnits="userSpaceOnUse" x="0" y="1" width="19" height="19">
<path fill-rule="evenodd" clip-rule="evenodd" d="M0.519531 10.447C0.519531 15.439 4.56353 19.483 9.55453 19.483C14.5455 19.483 18.5895 15.4381 18.5895 10.447C18.5895 5.45805 14.5455 1.41205 9.55353 1.41205C4.56253 1.41205 0.519531 5.45805 0.519531 10.447Z" fill="white"/>
</mask>
<g mask="url(#mask57)">
<path fill-rule="evenodd" clip-rule="evenodd" d="M9.55316 15.717C13.0772 15.717 16.1012 16.404 17.3952 17.388C17.8262 16.689 18.0682 15.916 18.0682 15.107C18.0682 11.871 14.2542 8.84497 9.55316 8.84497C4.84716 8.84497 1.03516 11.871 1.03516 15.107C1.03516 15.917 1.27616 16.689 1.70716 17.389C3.00116 16.404 6.02816 15.717 9.55316 15.717Z" fill="#DFF2FC"/>
</g>
<mask id="mask58" mask-type="alpha" maskUnits="userSpaceOnUse" x="0" y="1" width="19" height="19">
<path fill-rule="evenodd" clip-rule="evenodd" d="M0.519531 10.447C0.519531 15.439 4.56353 19.483 9.55453 19.483C14.5455 19.483 18.5895 15.4381 18.5895 10.447C18.5895 5.45805 14.5455 1.41205 9.55353 1.41205C4.56253 1.41205 0.519531 5.45805 0.519531 10.447Z" fill="white"/>
</mask>
<g mask="url(#mask58)">
<path fill-rule="evenodd" clip-rule="evenodd" d="M9.55383 15.7385C13.0738 15.7385 16.0948 16.4245 17.3848 17.3985C17.8148 16.7055 18.0578 15.9385 18.0578 15.1345C18.0578 11.9245 14.2488 8.92047 9.55383 8.92047C4.85583 8.92047 1.04883 11.9255 1.04883 15.1345C1.04883 15.9395 1.28783 16.7055 1.71783 17.3985C3.01083 16.4245 6.03383 15.7405 9.55383 15.7385Z" fill="#E5F4FC"/>
</g>
<mask id="mask59" mask-type="alpha" maskUnits="userSpaceOnUse" x="0" y="1" width="19" height="19">
<path fill-rule="evenodd" clip-rule="evenodd" d="M0.519531 10.447C0.519531 15.439 4.56353 19.483 9.55453 19.483C14.5455 19.483 18.5895 15.4381 18.5895 10.447C18.5895 5.45805 14.5455 1.41205 9.55353 1.41205C4.56253 1.41205 0.519531 5.45805 0.519531 10.447Z" fill="white"/>
</mask>
<g mask="url(#mask59)">
<path fill-rule="evenodd" clip-rule="evenodd" d="M9.55355 15.7628C13.0685 15.7628 16.0845 16.4418 17.3735 17.4078C17.8025 16.7198 18.0455 15.9598 18.0455 15.1608C18.0455 11.9758 14.2405 8.99182 9.55355 8.99182C4.86055 8.99182 1.06055 11.9778 1.06055 15.1608C1.06055 15.9608 1.29955 16.7198 1.72855 17.4088C3.01955 16.4418 6.03855 15.7638 9.55355 15.7628Z" fill="#EAF6FD"/>
</g>
<mask id="mask60" mask-type="alpha" maskUnits="userSpaceOnUse" x="0" y="1" width="19" height="19">
<path fill-rule="evenodd" clip-rule="evenodd" d="M0.519531 10.447C0.519531 15.439 4.56353 19.483 9.55453 19.483C14.5455 19.483 18.5895 15.4381 18.5895 10.447C18.5895 5.45805 14.5455 1.41205 9.55353 1.41205C4.56253 1.41205 0.519531 5.45805 0.519531 10.447Z" fill="white"/>
</mask>
<g mask="url(#mask60)">
<path fill-rule="evenodd" clip-rule="evenodd" d="M9.55427 15.7852C13.0643 15.7852 16.0753 16.4592 17.3633 17.4172C17.7923 16.7352 18.0333 15.9812 18.0333 15.1892C18.0333 12.0292 14.2353 9.06525 9.55427 9.06525C4.86927 9.06525 1.07227 12.0312 1.07227 15.1882C1.07227 15.9822 1.31127 16.7352 1.73927 17.4192C3.02927 16.4592 6.04427 15.7862 9.55427 15.7852Z" fill="#F0F8FD"/>
</g>
<mask id="mask61" mask-type="alpha" maskUnits="userSpaceOnUse" x="0" y="1" width="19" height="19">
<path fill-rule="evenodd" clip-rule="evenodd" d="M0.519531 10.447C0.519531 15.439 4.56353 19.483 9.55453 19.483C14.5455 19.483 18.5895 15.4381 18.5895 10.447C18.5895 5.45805 14.5455 1.41205 9.55353 1.41205C4.56253 1.41205 0.519531 5.45805 0.519531 10.447Z" fill="white"/>
</mask>
<g mask="url(#mask61)">
<path fill-rule="evenodd" clip-rule="evenodd" d="M9.55398 15.8067C13.059 15.8067 16.066 16.4757 17.352 17.4287C17.78 16.7507 18.021 16.0017 18.021 15.2167C18.021 12.0837 14.229 9.13873 9.55398 9.13873C4.87498 9.13873 1.08398 12.0837 1.08398 15.2167C1.08398 16.0047 1.32298 16.7507 1.74998 17.4287C3.03798 16.4757 6.04898 15.8107 9.55398 15.8067Z" fill="#F6FBFD"/>
</g>
<mask id="mask62" mask-type="alpha" maskUnits="userSpaceOnUse" x="0" y="1" width="19" height="19">
<path fill-rule="evenodd" clip-rule="evenodd" d="M0.519531 10.447C0.519531 15.439 4.56353 19.483 9.55453 19.483C14.5455 19.483 18.5895 15.4381 18.5895 10.447C18.5895 5.45805 14.5455 1.41205 9.55353 1.41205C4.56253 1.41205 0.519531 5.45805 0.519531 10.447Z" fill="white"/>
</mask>
<g mask="url(#mask62)">
<path fill-rule="evenodd" clip-rule="evenodd" d="M9.5537 15.8311C13.0537 15.8311 16.0557 16.4941 17.3417 17.4371C17.7667 16.7681 18.0087 16.0231 18.0087 15.2441C18.0087 12.1361 14.2207 9.21313 9.5537 9.21313C4.8817 9.21313 1.0957 12.1381 1.0957 15.2441C1.0957 16.0251 1.3347 16.7681 1.7607 17.4381C3.0467 16.4941 6.0547 15.8321 9.5537 15.8311Z" fill="#FEFEFE"/>
</g>
</svg>
