<svg width="22" height="20" viewBox="0 0 22 20" fill="none" xmlns="http://www.w3.org/2000/svg">
<mask id="mask0" mask-type="alpha" maskUnits="userSpaceOnUse" x="0" y="2" width="22" height="16">
<path fill-rule="evenodd" clip-rule="evenodd" d="M0 2.99988H21.3173V17.7195H0V2.99988Z" fill="white"/>
</mask>
<g mask="url(#mask0)">
<path fill-rule="evenodd" clip-rule="evenodd" d="M14.8968 10.3924C15.2563 10.3924 15.5474 10.107 15.5474 9.75182C15.5474 9.3974 15.2563 9.10873 14.8968 9.10873C14.5366 9.10873 14.2439 9.3974 14.2439 9.75182C14.2439 10.107 14.5366 10.3924 14.8968 10.3924ZM8.5126 7.35858C8.87355 7.35858 9.16627 7.07209 9.16627 6.71768C9.16627 6.36299 8.87355 6.07514 8.5126 6.07514C8.15053 6.07514 7.8606 6.36299 7.8606 6.71768C7.8606 7.07209 8.15053 7.35858 8.5126 7.35858ZM2.2521 10.5666C2.61166 10.5666 2.90577 10.2804 2.90577 9.9252C2.90577 9.56941 2.61166 9.28293 2.2521 9.28293C1.88919 9.28293 1.59815 9.56941 1.59815 9.9252C1.59815 10.2804 1.88919 10.5666 2.2521 10.5666ZM8.6204 13.5657C8.98219 13.5657 9.27407 13.2801 9.27407 12.9246C9.27407 12.5699 8.98219 12.2815 8.6204 12.2815C8.26112 12.2815 7.96756 12.5699 7.96756 12.9246C7.96756 13.2801 8.26112 13.5657 8.6204 13.5657ZM0.00334216 10.7274L0.0615514 10.8219C1.40788 12.9056 6.18549 12.2809 6.18549 12.2809C6.85393 12.1922 6.33701 11.8646 6.33701 11.8646C5.00599 10.6754 6.70158 9.78139 6.70158 9.78139C9.04443 8.42729 12.1911 8.90495 12.1911 8.90495C12.9183 8.91892 12.493 8.60531 12.493 8.60531C11.9507 8.08684 12.2072 7.46046 12.2072 7.46046C12.6896 6.33094 14.6863 5.959 14.6863 5.959C15.2469 5.73688 14.6863 5.5268 14.6863 5.5268C9.84432 4.54573 7.45691 5.91408 7.45691 5.91408C4.56733 7.38624 7.62206 8.63681 7.62206 8.63681C5.88359 8.32485 4.1426 8.42729 4.1426 8.42729C0.392704 8.72418 0.0164323 10.1372 0.0164323 10.1372C0.0164323 10.1372 0 10.3158 0 10.473M7.16902 14.6596C9.1952 15.7626 12.3728 15.3742 12.3728 15.3742C13.3423 15.3742 12.6457 14.8089 12.6457 14.8089C11.6475 14.1099 12.4335 13.2915 12.4335 13.2915C13.2793 12.3989 14.2778 12.2809 14.2778 12.2809C16.3045 11.6545 18.6354 11.9525 18.6354 11.9525C19.3606 12.0722 18.7552 11.4483 18.7552 11.4483C18.302 11.0903 18.5747 10.3157 18.5747 10.3157C19.5431 9.09858 21.1064 8.98054 21.1064 8.98054L21.037 8.7617L20.9799 8.60531C20.0728 8.33635 19.1785 8.32485 19.1785 8.32485C15.6695 7.96742 13.9152 8.94849 13.9152 8.94849C11.103 10.347 13.9152 11.6709 13.9152 11.6709C11.2392 11.2248 9.1952 11.715 9.1952 11.715C7.74443 11.9525 6.98854 12.5334 6.98854 12.5334C5.32359 13.678 7.16902 14.6596 7.16902 14.6596ZM0 10.4729C0 6.34461 4.77009 2.99988 10.6587 2.99988C16.5453 2.99988 21.3174 6.34461 21.3174 10.4729C21.3174 14.5977 16.5453 17.7195 10.6587 17.7195C4.77009 17.7195 0 14.5977 0 10.4729Z" fill="#086BAE"/>
</g>
</svg>
