<svg width="15" height="20" viewBox="0 0 15 20" fill="none" xmlns="http://www.w3.org/2000/svg">
<path fill-rule="evenodd" clip-rule="evenodd" d="M7.48205 2.86649L3.83789 1L7.48205 8.06514L11.1278 1L7.48205 2.86649Z" fill="#F8BF09"/>
<mask id="mask0" mask-type="alpha" maskUnits="userSpaceOnUse" x="0" y="1" width="15" height="19">
<path fill-rule="evenodd" clip-rule="evenodd" d="M0 1.56668H14.9668V19.8499H0V1.56668Z" fill="white"/>
</mask>
<g mask="url(#mask0)">
<path fill-rule="evenodd" clip-rule="evenodd" d="M12.348 6.41147L14.9513 5.29539V1.56668L10.4292 3.53164C10.4292 3.53164 7.98183 8.26023 7.92836 8.36921C9.84523 8.60096 11.2841 10.2419 11.2841 12.2167C11.2841 14.354 9.57917 16.0935 7.48374 16.0935C5.38571 16.0935 3.68467 14.354 3.68467 12.2167C3.68467 10.2419 5.12224 8.60096 7.03846 8.36921C6.98143 8.26023 4.536 3.53164 4.536 3.53164L0.0246293 1.56668V5.29539L2.62237 6.41147L2.56533 6.46071C0.936885 7.9149 0 10.0131 0 12.2167C0 16.4244 3.35736 19.8501 7.48374 19.8501C11.6091 19.8501 14.9668 16.4244 14.9668 12.2167C14.9668 10.0131 14.0338 7.9149 12.4034 6.46071L12.348 6.41147Z" fill="#F8BF09"/>
</g>
</svg>
