<svg width="46" height="20" viewBox="0 0 46 20" fill="none" xmlns="http://www.w3.org/2000/svg">
<mask id="mask0" mask-type="alpha" maskUnits="userSpaceOnUse" x="0" y="4" width="46" height="12">
<path fill-rule="evenodd" clip-rule="evenodd" d="M0 4.19492H45.9984V15.7309H0V4.19492Z" fill="white"/>
</mask>
<g mask="url(#mask0)">
<path fill-rule="evenodd" clip-rule="evenodd" d="M40.5726 4.19492H5.42859C2.42825 4.19492 0 6.6222 0 9.62058V15.731H3.8449V9.62136C3.8449 8.74775 4.55419 8.03962 5.42859 8.03962H40.5804C41.4528 8.03962 42.1611 8.74775 42.1611 9.62136V15.731H45.9984V9.62058C45.9984 6.6222 43.5678 4.19492 40.5726 4.19492Z" fill="white"/>
</g>
<path fill-rule="evenodd" clip-rule="evenodd" d="M10.335 13.4226H9.85243C9.80702 13.4226 9.77174 13.3914 9.77174 13.3501V12.1667C9.77174 12.1225 9.72944 12.0893 9.68169 12.0893H8.42429C8.3779 12.0893 8.33697 12.1225 8.33697 12.1667V13.3501C8.33697 13.3914 8.29974 13.4226 8.25569 13.4226H7.77132C7.72727 13.4226 7.69141 13.3914 7.69141 13.3501V10.4203C7.69141 10.379 7.72727 10.3458 7.77132 10.3458H8.25569C8.29974 10.3458 8.33697 10.379 8.33697 10.4203V11.5588C8.33697 11.5991 8.3779 11.6315 8.42429 11.6315H9.68169C9.72944 11.6315 9.77174 11.5991 9.77174 11.5588V10.4203C9.77174 10.379 9.80702 10.3458 9.85243 10.3458H10.335C10.3797 10.3458 10.4146 10.379 10.4146 10.4203V13.3501C10.4146 13.3914 10.3797 13.4226 10.335 13.4226Z" fill="white"/>
<path fill-rule="evenodd" clip-rule="evenodd" d="M13.3717 14.0052L13.066 14.4841C13.043 14.5198 12.9894 14.552 12.9444 14.552H12.8852C12.8421 14.552 12.8076 14.5198 12.8029 14.4841V14.4757V14.4658V13.2829C12.8029 13.2419 12.7657 13.2152 12.7255 13.2283L11.8433 13.4478C11.7962 13.4552 11.7517 13.4597 11.7011 13.4597C11.4044 13.4597 11.1641 13.2419 11.1641 12.9731V11.154C11.1641 11.1111 11.1999 11.0762 11.2459 11.0762H11.7114C11.7545 11.0762 11.7921 11.1111 11.7921 11.154V12.9153C11.7921 12.9548 11.8277 12.9882 11.8751 12.9882H12.7218C12.7657 12.9882 12.8029 12.9548 12.8029 12.9153V11.154V11.145C12.8076 11.1047 12.8421 11.0762 12.8852 11.0762H13.3479C13.3629 11.0762 13.3717 11.0838 13.3841 11.0879C13.4083 11.1031 13.4261 11.1162 13.4315 11.145V11.154V11.1616V13.8045C13.4315 13.8719 13.4083 13.9512 13.3717 14.0052Z" fill="white"/>
<path fill-rule="evenodd" clip-rule="evenodd" d="M16.3073 13.4226H15.8424C15.7948 13.4226 15.7603 13.3914 15.7603 13.3501V13.2828C15.7603 13.2419 15.7243 13.2154 15.6837 13.2282L14.8008 13.4477C14.7557 13.4551 14.7084 13.4596 14.6596 13.4596C14.3634 13.4596 14.123 13.2419 14.123 12.9731V11.1539C14.123 11.1113 14.1589 11.0762 14.2028 11.0762H14.6665C14.7123 11.0762 14.7509 11.1113 14.7509 11.1539V12.9152C14.7509 12.955 14.7865 12.9881 14.831 12.9881H15.6771C15.7243 12.9881 15.7603 12.955 15.7603 12.9152V11.1539C15.7603 11.1113 15.7948 11.0762 15.8424 11.0762H16.3073C16.3515 11.0762 16.3885 11.1113 16.3885 11.1539V13.3501C16.3885 13.3914 16.3515 13.4226 16.3073 13.4226Z" fill="white"/>
<path fill-rule="evenodd" clip-rule="evenodd" d="M19.3467 13.35C19.3467 13.3914 19.3103 13.4225 19.2661 13.4225H18.8008C18.755 13.4225 18.718 13.3914 18.718 13.35V11.5859C18.718 11.5439 18.6827 11.5122 18.6363 11.5122H17.7898C17.7442 11.5122 17.7081 11.5439 17.7081 11.5859V13.35C17.7081 13.3914 17.672 13.4225 17.6264 13.4225H17.1617C17.1161 13.4225 17.0801 13.3914 17.0801 13.35V11.1539C17.0801 11.1112 17.1161 11.0762 17.1617 11.0762H17.6264C17.672 11.0762 17.7081 11.1112 17.7081 11.1539V11.221C17.7081 11.2615 17.7442 11.2855 17.7857 11.2759L18.6686 11.0563C18.7154 11.0442 18.7599 11.0387 18.8107 11.0387C19.1058 11.0387 19.3467 11.2563 19.3467 11.5256V13.35Z" fill="white"/>
<path fill-rule="evenodd" clip-rule="evenodd" d="M21.6328 12.8083V11.586C21.6328 11.5441 21.5963 11.5123 21.5507 11.5123H20.6978C20.6547 11.5123 20.6112 11.5441 20.6112 11.586V12.9153C20.6112 12.9549 20.6547 12.9882 20.6978 12.9882H21.5507C21.5963 12.9882 21.6328 12.9549 21.6328 12.9153V12.8083ZM22.178 13.4225H21.7137C21.6681 13.4225 21.6328 13.3913 21.6328 13.35V13.2829C21.6328 13.242 21.5963 13.2153 21.5544 13.2281L20.6635 13.4476C20.6167 13.455 20.5709 13.4597 20.5257 13.4597C20.2306 13.4597 19.9883 13.242 19.9883 12.9732V11.9207C19.9883 11.7029 20.1163 11.5158 20.3118 11.4131L20.803 11.1564C20.8995 11.1047 21.0067 11.0761 21.126 11.0761H21.5507C21.5963 11.0761 21.6328 11.0441 21.6328 11.0012V10.1376C21.6328 10.0972 21.6681 10.0666 21.7137 10.0666H22.178C22.2218 10.0666 22.2602 10.0972 22.2602 10.1376V13.35C22.2602 13.3913 22.2218 13.4225 22.178 13.4225Z" fill="white"/>
<path fill-rule="evenodd" clip-rule="evenodd" d="M24.5441 11.5859C24.5441 11.544 24.5084 11.5122 24.4621 11.5122H23.6132C23.5666 11.5122 23.5247 11.544 23.5247 11.5859V12.9152C23.5247 12.9548 23.5666 12.9881 23.6132 12.9881H24.4621C24.5084 12.9881 24.5441 12.9548 24.5441 12.9152V11.5859ZM22.9023 11.9207C22.9023 11.703 23.03 11.5159 23.2247 11.413L23.7177 11.1539C23.8116 11.1046 23.921 11.0762 24.0405 11.0762H25.0905C25.1367 11.0762 25.1725 11.1111 25.1725 11.1539V13.3501C25.1725 13.3914 25.1367 13.4226 25.0905 13.4226H24.6271C24.5815 13.4226 24.5441 13.3914 24.5441 13.3501V13.2828C24.5441 13.2419 24.5084 13.2152 24.4669 13.2282L23.5764 13.4477C23.5298 13.4551 23.4853 13.4596 23.4397 13.4596C23.1423 13.4596 22.9023 13.2419 22.9023 12.9731V11.9207Z" fill="white"/>
<path fill-rule="evenodd" clip-rule="evenodd" d="M26.6653 13.4225H25.9822C25.9174 13.4225 25.8633 13.3914 25.8633 13.35V11.1539C25.8633 11.1112 25.9174 11.0762 25.9822 11.0762H26.6653C26.7285 11.0762 26.7833 11.1112 26.7833 11.1539V13.35C26.7833 13.3914 26.7285 13.4225 26.6653 13.4225ZM26.6653 10.5565H25.9822C25.9174 10.5565 25.8633 10.5232 25.8633 10.4832V10.1374C25.8633 10.0971 25.9174 10.0665 25.9822 10.0665H26.6653C26.7285 10.0665 26.7833 10.0971 26.7833 10.1374V10.4832C26.7833 10.5232 26.7285 10.5565 26.6653 10.5565Z" fill="white"/>
<path fill-rule="evenodd" clip-rule="evenodd" d="M30.689 10.8021H29.0915C29.0457 10.8021 29.0039 10.8397 29.0039 10.8804V12.8857C29.0039 12.9319 29.0457 12.9691 29.0915 12.9691H30.7299C30.7763 12.9691 30.8161 12.9968 30.8161 13.0296C30.8161 13.0728 30.7837 13.1196 30.7395 13.1408L30.3524 13.3412C30.2514 13.3913 30.138 13.4225 30.0193 13.4225H29.0228C28.6496 13.4225 28.3496 13.1547 28.3496 12.814V11.235C28.3496 11.0011 28.4818 10.8021 28.6864 10.7011L29.1821 10.4419C29.2006 10.4339 29.2509 10.4058 29.268 10.4017C29.3552 10.3666 29.4495 10.3458 29.5513 10.3458H30.689C30.7348 10.3458 30.7714 10.3789 30.7714 10.4202V10.7299C30.7714 10.7695 30.7348 10.8021 30.689 10.8021Z" fill="white"/>
<path fill-rule="evenodd" clip-rule="evenodd" d="M32.8404 11.5859C32.8404 11.544 32.8047 11.5122 32.7599 11.5122H31.9083C31.8621 11.5122 31.8222 11.544 31.8222 11.5859V12.9152C31.8222 12.9548 31.8621 12.9881 31.9083 12.9881H32.7599C32.8047 12.9881 32.8404 12.9548 32.8404 12.9152V11.5859ZM31.1973 11.9207C31.1973 11.703 31.3244 11.5159 31.5212 11.413L32.0108 11.1539C32.1077 11.1046 32.2157 11.0762 32.3348 11.0762H33.3866C33.4331 11.0762 33.469 11.1111 33.469 11.1539V13.3501C33.469 13.3914 33.4331 13.4226 33.3866 13.4226H32.923C32.877 13.4226 32.8404 13.3914 32.8404 13.3501V13.2828C32.8404 13.2419 32.8047 13.2152 32.7638 13.2282L31.8703 13.4477C31.8247 13.4551 31.7814 13.4596 31.7348 13.4596C31.4394 13.4596 31.1973 13.2419 31.1973 12.9731V11.9207Z" fill="white"/>
<path fill-rule="evenodd" clip-rule="evenodd" d="M35.7819 11.5122H34.8706C34.8248 11.5122 34.7878 11.544 34.7878 11.5859V13.3501C34.7878 13.3914 34.7525 13.4226 34.7065 13.4226H34.2471C34.2015 13.4226 34.1602 13.3914 34.1602 13.3501V11.154C34.1602 11.1111 34.2015 11.0762 34.2471 11.0762H34.7065C34.7525 11.0762 34.7878 11.1111 34.7878 11.154V11.2167C34.7878 11.2563 34.8248 11.2887 34.8706 11.2887C34.8829 11.2887 34.9038 11.2855 34.9119 11.2799L35.1979 11.1212C35.2887 11.0713 35.3938 11.0479 35.5072 11.0479H35.7819C35.8265 11.0479 35.8641 11.0811 35.8641 11.1212V11.4339C35.8641 11.4822 35.8265 11.5122 35.7819 11.5122Z" fill="white"/>
<path fill-rule="evenodd" clip-rule="evenodd" d="M37.6865 12.8083V11.586C37.6865 11.5441 37.651 11.5123 37.605 11.5123H36.7546C36.7088 11.5123 36.6673 11.5441 36.6673 11.586V12.9153C36.6673 12.9549 36.7088 12.9882 36.7546 12.9882H37.605C37.651 12.9882 37.6865 12.9549 37.6865 12.9153V12.8083ZM38.2338 13.4225H37.7691C37.7257 13.4225 37.6865 13.3913 37.6865 13.35V13.2829C37.6865 13.242 37.651 13.2153 37.6095 13.2281L36.7164 13.4476C36.6733 13.455 36.6275 13.4597 36.5819 13.4597C36.286 13.4597 36.0449 13.242 36.0449 12.9732V11.9207C36.0449 11.7029 36.1732 11.5158 36.3671 11.4131L36.8583 11.1564C36.9544 11.1047 37.063 11.0761 37.1836 11.0761H37.605C37.651 11.0761 37.6865 11.0441 37.6865 11.0012V10.1376C37.6865 10.0972 37.7257 10.0666 37.7691 10.0666H38.2338C38.2794 10.0666 38.3151 10.0972 38.3151 10.1376V13.35C38.3151 13.3913 38.2794 13.4225 38.2338 13.4225Z" fill="white"/>
</svg>
