<svg width="26" height="20" viewBox="0 0 26 20" fill="none" xmlns="http://www.w3.org/2000/svg">
<path d="M25.2818 8.4165C25.4479 8.92836 25.5321 9.46259 25.5312 9.99995C25.5312 14.4137 19.8152 18 12.7655 18C10.8557 18.0056 8.95591 17.7266 7.13086 17.1724C8.29646 16.0689 9.62738 15.0841 13.2279 14.6731C16.8283 14.262 25.5199 13.862 25.2818 8.4165Z" fill="url(#paint0_radial)"/>
<path d="M19.5076 7.56966C19.5076 6.87173 18.9332 6.51587 17.7704 6.51587C17.5687 6.51587 17.3305 6.51587 17.0784 6.54621C16.9757 7.2439 16.9392 7.94946 16.9691 8.6538V9.00415H17.2941C18.7735 9.00415 19.5076 8.45242 19.5076 7.56966Z" fill="#004098"/>
<path d="M4.7971 6.4717C4.4587 6.469 4.12113 6.50511 3.79121 6.57928C3.71618 7.30137 3.68904 8.02751 3.70995 8.75308V10.2924C3.70995 11.2524 3.72956 11.8482 3.75758 12.0717C3.81082 12.4303 4.0742 12.5158 4.94 12.5158C6.60715 12.5158 7.5458 11.4124 7.5458 9.55032C7.5458 7.5917 6.55952 6.4717 4.7971 6.4717Z" fill="#004098"/>
<path fill-rule="evenodd" clip-rule="evenodd" d="M23.6175 7.41241C23.5643 6.14621 22.6396 4.89103 21.6561 4.25931C19.3557 2.86069 16.2204 2 12.7656 2C5.71314 2 0 5.58621 0 10C0 13.1503 2.8944 15.8759 7.1057 17.1862C8.1144 15.3462 10.6782 14.4579 14.9147 13.7048C16.0381 13.5151 17.1502 13.2656 18.2462 12.9572H18.1313C17.8117 12.9572 17.5051 12.9399 17.2128 12.9233L17.2128 12.9233C16.9464 12.9082 16.6919 12.8938 16.4501 12.8938H15.6404C15.9206 12.6179 15.9374 11.6193 15.9374 9.80414V9.38207C15.9374 7.48414 15.9374 6.41931 15.6404 6.14621H16.6463C17.0399 6.14621 17.4216 6.12649 17.7922 6.10734L17.7922 6.10734C18.1419 6.08928 18.4816 6.07172 18.8122 6.07172C20.0114 6.07172 20.6586 6.55724 20.6586 7.34621C20.6586 8.13517 20.0338 8.69517 18.8038 9.06759C20.2496 9.21379 21.0453 9.89517 21.0453 10.891C21.0499 11.3164 20.8998 11.7293 20.6222 12.0552C22.4687 11.1034 23.7128 9.67724 23.6175 7.41241ZM5.02108 12.9572C4.65228 12.9572 4.31226 12.9419 4.00056 12.9278C3.7368 12.9158 3.49333 12.9048 3.26987 12.9048H2.57779C2.82156 12.629 2.83277 11.6303 2.83277 9.81517V9.38207C2.83277 7.48414 2.83277 6.41931 2.57779 6.14621H3.3203C3.76358 6.14621 4.18036 6.11092 4.57435 6.07756H4.57435L4.57436 6.07756C4.92749 6.04766 5.2623 6.01931 5.58146 6.01931C7.48398 6.01931 8.58233 7.26345 8.58233 9.21379C8.58233 11.5034 7.2262 12.9572 5.02108 12.9572ZM14.8586 12.8497C14.7549 12.3862 14.7172 11.9109 14.7465 11.4372C14.7465 10.4579 14.7661 9.82621 14.9903 9.52H13.6258C13.8219 9.76 13.8807 10.32 13.8807 11.1945C13.8857 11.6105 13.8595 12.0264 13.8023 12.4386C13.555 12.4994 13.3006 12.5282 13.0458 12.5241C11.2693 12.5241 10.1486 11.429 10.1486 9.55034C10.1486 7.67172 11.1657 6.51586 12.7712 6.51586C13.5312 6.49263 14.2598 6.81517 14.7465 7.39034V6.15724C14.217 6.07741 13.6823 6.03501 13.1466 6.03034C10.5941 6.03034 9.07822 7.4731 9.07822 9.72138C9.07822 11.8317 10.2971 13.0317 12.5386 13.0317C12.7792 13.0317 13.1077 13.0003 13.5241 12.9605C13.8981 12.9248 14.3429 12.8823 14.8586 12.8497Z" fill="#004098"/>
<path d="M16.9683 10.6925C16.9488 11.2313 16.9817 11.7708 17.0664 12.3035C17.1253 12.4745 17.4587 12.5793 18.0247 12.5793C19.1454 12.5793 19.8067 11.989 19.8067 10.9766C19.8067 9.96417 19.0894 9.39038 17.7249 9.39038H16.9683V10.6925Z" fill="#004098"/>
<defs>
<radialGradient id="paint0_radial" cx="0" cy="0" r="1" gradientUnits="userSpaceOnUse" gradientTransform="translate(7.30458 19.531) scale(14.0554 7.32055)">
<stop offset="0.01" stop-color="#004098"/>
<stop offset="0.15" stop-color="#00449B"/>
<stop offset="0.32" stop-color="#0052A5"/>
<stop offset="0.42" stop-color="#005EAE"/>
<stop offset="0.55" stop-color="#0C6B99"/>
<stop offset="0.8" stop-color="#298D61"/>
<stop offset="1" stop-color="#42AA33"/>
</radialGradient>
</defs>
</svg>
