<svg width="25" height="20" viewBox="0 0 25 20" fill="none" xmlns="http://www.w3.org/2000/svg">
<path fill-rule="evenodd" clip-rule="evenodd" d="M5.39203 14.0823C5.21308 15.0374 5.71473 15.3442 6.58663 15.3442C7.20402 15.3442 7.89706 15.1162 8.03658 14.5143C8.20317 13.7991 7.11002 13.6624 6.05088 13.3318C5.00367 13.0031 3.94572 12.4801 4.29228 10.991C4.7056 9.21885 6.5972 8.52478 8.0749 8.52478C9.64068 8.52478 11.0354 9.30919 10.6199 11.14H8.56953C8.77445 10.4014 8.15706 10.162 7.52892 10.162C7.08718 10.162 6.49923 10.3203 6.37561 10.8553C6.22949 11.48 7.33872 11.5942 8.40818 11.9245C9.46816 12.2529 10.4863 12.7981 10.1457 14.2643C9.66615 16.3201 7.81498 16.9802 6.08464 16.9802C4.27561 16.9802 2.8678 16.162 3.34026 14.0823H5.39203Z" fill="#005DA0"/>
<path fill-rule="evenodd" clip-rule="evenodd" d="M19.5819 8.69568H21.6325L19.7427 16.8096H17.6914L19.5819 8.69568Z" fill="#005DA0"/>
<path fill-rule="evenodd" clip-rule="evenodd" d="M12.6627 15.1163H14.3061C14.9567 15.1163 15.4634 14.8771 15.6202 14.2076C15.7878 13.4915 15.3572 13.2529 14.7398 13.2529H13.0967L12.6627 15.1163ZM13.4148 11.8895H15.0018C15.3547 11.8895 15.8848 11.6958 16.019 11.1166C16.1583 10.5259 15.7948 10.3317 15.3651 10.3317H13.7769L13.4148 11.8895ZM12.1082 8.69573H15.7894C17.1513 8.67399 18.5551 9.03642 18.1606 10.73C17.9915 11.4571 17.4346 12.049 16.7431 12.3662C17.5232 12.6162 17.8668 13.3673 17.6525 14.2872C17.2025 16.2197 15.687 16.8096 13.9999 16.8096H10.2188L12.1082 8.69573Z" fill="#005DA0"/>
<path fill-rule="evenodd" clip-rule="evenodd" d="M24.4956 5.43618C23.3617 2.5068 16.8756 2.17188 10.0105 4.68883C5.11403 6.48437 1.34816 9.24509 0 11.7455C1.86326 9.85063 4.87205 7.99011 8.5028 6.6578C15.3691 4.14003 21.8544 4.47512 22.9882 7.40606C23.3144 8.24606 23.1627 9.20902 22.621 10.2153C24.2803 8.52853 25.0297 6.81675 24.4956 5.43618Z" fill="#ED303B"/>
</svg>
