<svg width="35" height="20" viewBox="0 0 35 20" fill="none" xmlns="http://www.w3.org/2000/svg">
<mask id="mask0" mask-type="alpha" maskUnits="userSpaceOnUse" x="23" y="4" width="11" height="12">
<path fill-rule="evenodd" clip-rule="evenodd" d="M23.6289 4.52197H33.4242V15.5253H23.6289V4.52197Z" fill="white"/>
</mask>
<g mask="url(#mask0)">
<path fill-rule="evenodd" clip-rule="evenodd" d="M32.4307 6.48568H33.3199C33.378 6.48568 33.4242 6.43768 33.4242 6.37768V4.63194C33.4242 4.57142 33.378 4.52185 33.3199 4.52185H32.0708C30.6268 4.52185 29.8602 5.00289 29.4233 6.0255L26.707 12.9516C26.5419 13.3653 26.3042 13.561 25.8362 13.561V4.63194C25.8362 4.57142 25.789 4.52185 25.7305 4.52185H23.735C23.677 4.52185 23.6289 4.57142 23.6289 4.63194V15.3323C23.6289 15.4387 23.7129 15.5253 23.8157 15.5253H26.0537C27.4977 15.5253 28.1581 15.0432 28.5954 14.0243L31.2764 7.18429C31.4915 6.69907 31.8005 6.48568 32.4307 6.48568Z" fill="#C92024"/>
</g>
<mask id="mask1" mask-type="alpha" maskUnits="userSpaceOnUse" x="0" y="4" width="10" height="12">
<path fill-rule="evenodd" clip-rule="evenodd" d="M0 4.52197H9.65095V15.5254H0V4.52197Z" fill="white"/>
</mask>
<g mask="url(#mask1)">
<path fill-rule="evenodd" clip-rule="evenodd" d="M5.71002 13.6086H2.33422V11.0286H5.71002C6.61954 11.0286 7.23375 11.6062 7.23375 12.3178C7.23375 13.0316 6.61954 13.6086 5.71002 13.6086ZM8.0357 10.0243C8.83577 9.67835 9.50046 8.89835 9.50046 7.60966C9.50046 5.68757 7.9154 4.52148 6.00578 4.52148H0.104727C0.0471745 4.52148 0 4.57157 0 4.63157V6.37835C0 6.43731 0.0471745 6.48583 0.104727 6.48583H5.59678C6.48413 6.48583 7.08277 7.05035 7.08277 7.74375C7.08277 8.43922 6.48413 9.0027 5.59678 9.0027H2.33419V7.70618C2.33419 7.64566 2.28702 7.59714 2.22946 7.59714H0.104727C0.0471745 7.59714 0 7.64566 0 7.70618V15.4154C0 15.4764 0.0471745 15.5255 0.104727 15.5255H5.92086C8.09466 15.5255 9.65095 14.4695 9.65095 12.3178C9.65095 11.2618 9.05183 10.3864 8.0357 10.0243Z" fill="#C92024"/>
</g>
<path fill-rule="evenodd" clip-rule="evenodd" d="M34.4954 15.4001L31.0743 10.8438C31.0639 10.8291 31.0498 10.8328 31.0437 10.8469L30.1219 13.1926C30.1176 13.2072 30.1176 13.2234 30.1271 13.2359L31.6234 15.3245C31.7282 15.4685 31.8484 15.5253 32.0282 15.5253H34.4388C34.5086 15.5253 34.5379 15.4549 34.4954 15.4001Z" fill="#C92024"/>
<mask id="mask2" mask-type="alpha" maskUnits="userSpaceOnUse" x="11" y="7" width="3" height="9">
<path fill-rule="evenodd" clip-rule="evenodd" d="M11.2969 7.59668H13.5056V15.5254H11.2969V7.59668Z" fill="white"/>
</mask>
<g mask="url(#mask2)">
<path fill-rule="evenodd" clip-rule="evenodd" d="M13.4004 7.59668H11.4016C11.3436 7.59668 11.2969 7.64624 11.2969 7.70624V15.4155C11.2969 15.4765 11.3436 15.5256 11.4016 15.5256H13.4004C13.4584 15.5256 13.5056 15.4765 13.5056 15.4155V7.70624C13.5056 7.64624 13.4584 7.59668 13.4004 7.59668Z" fill="#C92024"/>
</g>
<mask id="mask3" mask-type="alpha" maskUnits="userSpaceOnUse" x="11" y="4" width="11" height="12">
<path fill-rule="evenodd" clip-rule="evenodd" d="M11.2949 4.52197H21.7224V15.5252H11.2949V4.52197Z" fill="white"/>
</mask>
<g mask="url(#mask3)">
<path fill-rule="evenodd" clip-rule="evenodd" d="M21.6181 4.52179H19.6207C19.5632 4.52179 19.5165 4.57135 19.5165 4.63188V13.5609C19.048 13.5609 18.8117 13.3653 18.6471 12.9515L15.9293 6.02544C15.4925 5.00283 14.7264 4.52179 13.2819 4.52179H11.3996C11.3416 4.52179 11.2949 4.57135 11.2949 4.63188V6.37814C11.2949 6.43762 11.3416 6.48562 11.3996 6.48562H12.922C13.5522 6.48562 13.8607 6.69901 14.0768 7.18475L16.7577 14.0242C17.195 15.0437 17.8545 15.5253 19.299 15.5253H21.5379C21.6403 15.5253 21.7224 15.4387 21.7224 15.3322V4.63188C21.7224 4.57135 21.6757 4.52179 21.6181 4.52179Z" fill="#C92024"/>
</g>
</svg>
