<svg width="25" height="20" viewBox="0 0 25 20" fill="none" xmlns="http://www.w3.org/2000/svg">
<path fill-rule="evenodd" clip-rule="evenodd" d="M0.0349205 9.96321C-0.0096815 9.98613 -0.0118325 10.0276 0.0300491 10.0552L3.85317 12.5762L4.94861 7.4314L0.0349205 9.96321Z" fill="#E62511"/>
<path fill-rule="evenodd" clip-rule="evenodd" d="M22.6719 7.43054H21.7052C21.6551 7.43054 21.5774 7.44943 21.5326 7.47235L16.6872 9.96482C16.6426 9.98781 16.6407 10.029 16.6823 10.0566V10.0568L20.4417 12.5268C20.4838 12.5542 20.559 12.577 20.6095 12.577H21.5757C21.6258 12.577 21.6326 12.5545 21.5913 12.5271L17.7544 10.0067L22.6819 7.47235C22.7265 7.44943 22.722 7.43054 22.6719 7.43054Z" fill="#EF8200"/>
<path fill-rule="evenodd" clip-rule="evenodd" d="M20.6008 7.43054H13.866L12.7715 12.577H19.5053C19.5554 12.577 19.5619 12.5545 19.5204 12.5268L15.69 10.0067L20.6109 7.47235C20.6556 7.44943 20.6509 7.43054 20.6008 7.43054Z" fill="#E62511"/>
<path fill-rule="evenodd" clip-rule="evenodd" d="M24.7401 7.43054H23.7737C23.7232 7.43054 23.6457 7.44943 23.6011 7.47235L18.7554 9.96482C18.7111 9.98781 18.709 10.029 18.7505 10.0566C18.7508 10.0566 18.7508 10.0566 18.7508 10.0568L22.51 12.5268C22.5518 12.5542 22.6274 12.577 22.6775 12.577H23.6441C23.6942 12.577 23.7009 12.5545 23.6593 12.5271L19.8225 10.0067L24.7502 7.47235C24.7948 7.44943 24.7904 7.43054 24.7401 7.43054Z" fill="#F9BE00"/>
<mask id="mask0" mask-type="alpha" maskUnits="userSpaceOnUse" x="2" y="4" width="19" height="7">
<path fill-rule="evenodd" clip-rule="evenodd" d="M2.77344 4.06317H20.3429V10.0035H2.77344V4.06317Z" fill="white"/>
</mask>
<g mask="url(#mask0)">
<path fill-rule="evenodd" clip-rule="evenodd" d="M20.302 4.06317H4.44586C3.5609 4.06317 2.94154 4.61921 2.79539 5.30624C2.71536 5.68323 2.85878 6.01873 3.14968 6.24875L8.84691 10.0035L8.85121 10.0013L8.85203 10.0035L20.3122 4.10511C20.3567 4.08218 20.3524 4.06317 20.302 4.06317Z" fill="#E62511"/>
</g>
<mask id="mask1" mask-type="alpha" maskUnits="userSpaceOnUse" x="0" y="10" width="18" height="6">
<path fill-rule="evenodd" clip-rule="evenodd" d="M0.765625 10.0034H17.8152V15.9444H0.765625V10.0034Z" fill="white"/>
</mask>
<g mask="url(#mask1)">
<path fill-rule="evenodd" clip-rule="evenodd" d="M17.7878 15.8942H17.7876L8.85281 10.0034L8.85122 10.0056L8.84768 10.0034L1.55129 13.7593C1.16297 13.9879 0.876696 14.3239 0.796413 14.7017C0.649194 15.3874 1.03113 15.9444 1.91678 15.9444H17.7725C17.8229 15.9444 17.8295 15.9218 17.7878 15.8942Z" fill="#E62511"/>
</g>
</svg>
