<svg width="18" height="20" viewBox="0 0 18 20" fill="none" xmlns="http://www.w3.org/2000/svg">
<path fill-rule="evenodd" clip-rule="evenodd" d="M0 18.6143H17.604V1.49976H0V18.6143Z" fill="#0090D0"/>
<path fill-rule="evenodd" clip-rule="evenodd" d="M0 1.49982L4.39971 5.78032L8.80149 1.49982H0Z" fill="#0090D0"/>
<path fill-rule="evenodd" clip-rule="evenodd" d="M0 1.49982V10.0568L4.39971 5.78032L0 1.49982Z" fill="#0099D7"/>
<path fill-rule="evenodd" clip-rule="evenodd" d="M0 10.0566H8.80097L4.40229 5.77759L0 10.0566Z" fill="#0090D0"/>
<path fill-rule="evenodd" clip-rule="evenodd" d="M8.80154 1.49982L4.40234 5.77732L8.80154 10.0568V1.49982Z" fill="#0082C8"/>
<path fill-rule="evenodd" clip-rule="evenodd" d="M8.80078 1.49982V10.0568L13.2005 5.78032L8.80078 1.49982Z" fill="#0070BA"/>
<path fill-rule="evenodd" clip-rule="evenodd" d="M8.80273 10.0566H17.6042L13.205 5.77759L8.80273 10.0566Z" fill="#004C97"/>
<path fill-rule="evenodd" clip-rule="evenodd" d="M0 10.0566L4.39971 14.3371L8.80149 10.0566H0Z" fill="#0082C8"/>
<path fill-rule="evenodd" clip-rule="evenodd" d="M0 18.6143L4.39971 14.3368L0 10.0568V18.6143Z" fill="#0070BA"/>
<path fill-rule="evenodd" clip-rule="evenodd" d="M0 18.6142H8.80097L4.40229 14.3337L0 18.6142Z" fill="#0066B2"/>
<path fill-rule="evenodd" clip-rule="evenodd" d="M4.40234 14.3339L8.80154 18.6144V10.0574L4.40234 14.3339Z" fill="#00519B"/>
<path fill-rule="evenodd" clip-rule="evenodd" d="M8.80078 10.0566L13.2005 14.3371L17.6023 10.0566H8.80078Z" fill="#1B3281"/>
<path fill-rule="evenodd" clip-rule="evenodd" d="M8.80078 18.6143L13.2005 14.3368L8.80078 10.0568V18.6143Z" fill="#004C97"/>
<path fill-rule="evenodd" clip-rule="evenodd" d="M8.80273 18.6142H17.6042L13.205 14.3337L8.80273 18.6142Z" fill="#1B3281"/>
<path fill-rule="evenodd" clip-rule="evenodd" d="M13.2051 14.3339L17.6048 18.6144V10.0574L13.2051 14.3339Z" fill="#1B3281"/>
<path fill-rule="evenodd" clip-rule="evenodd" d="M8.80078 1.49982L13.2005 5.78032L17.6023 1.49982H8.80078Z" fill="#0066B2"/>
<path fill-rule="evenodd" clip-rule="evenodd" d="M17.6028 1.49982L13.2031 5.77732L17.6028 10.0568V1.49982Z" fill="#00519B"/>
<path fill-rule="evenodd" clip-rule="evenodd" d="M3.41406 15.3153L6.53475 18.3488L11.9671 13.1463L17.6032 18.5958V12.1983L11.9671 6.97882L3.41406 15.3153Z" fill="#FEFEFE"/>
</svg>
