<svg width="21" height="20" viewBox="0 0 21 20" fill="none" xmlns="http://www.w3.org/2000/svg">
<mask id="mask0" mask-type="alpha" maskUnits="userSpaceOnUse" x="0" y="1" width="19" height="18">
<path fill-rule="evenodd" clip-rule="evenodd" d="M0 1.00012H18.7296V18.9173H0V1.00012Z" fill="white"/>
</mask>
<g mask="url(#mask0)">
<path fill-rule="evenodd" clip-rule="evenodd" d="M4.39467 13.1464H5.21988V7.46664H4.39467V13.1464ZM1.02617 14.8264L9.39167 17.6109C9.43636 17.5446 9.48092 17.5006 9.54783 17.4343L9.57005 17.4122C9.61461 17.3459 9.65942 17.3015 9.70398 17.2352L9.72632 17.2131C9.77076 17.1468 9.81557 17.1026 9.86014 17.0365L9.88248 17.0142C9.92716 16.948 9.97173 16.8815 9.99395 16.8375C10.0162 16.8154 10.0162 16.7935 10.0162 16.7935C10.0609 16.7268 10.1054 16.6828 10.1279 16.6165C10.1502 16.5944 10.1502 16.5721 10.1502 16.5721C10.1948 16.5058 10.2393 16.4397 10.2616 16.3953C10.2616 16.3734 10.2839 16.3513 10.2839 16.3291C10.3286 16.285 10.3508 16.2187 10.3733 16.1522C10.3733 16.1304 10.3955 16.1081 10.3955 16.086C10.4401 16.042 10.4625 15.9757 10.4847 15.9313C10.4847 15.9089 10.507 15.865 10.507 15.8428C10.5293 15.7987 10.5517 15.7326 10.574 15.6882C10.574 15.6659 10.5962 15.6219 10.5962 15.5998C10.6187 15.5336 10.6409 15.4893 10.6632 15.4452C10.6632 15.401 10.6632 15.3789 10.6855 15.3345C10.7079 15.2903 10.7079 15.2462 10.7301 15.1797C10.7301 15.158 10.7524 15.1134 10.7524 15.0695C10.7524 15.0251 10.7748 14.9812 10.7748 14.9149C10.7969 14.8925 10.7969 14.8484 10.7969 14.8041C10.8194 14.7601 10.8194 14.7158 10.8416 14.6718V14.5166C10.8641 14.4727 10.8641 14.4285 10.8641 14.3843C10.8641 14.3401 10.8641 14.2738 10.8863 14.2294V14.119V13.8539C10.8863 12.8152 10.574 11.8206 10.0386 10.9584C9.39167 11.6878 8.56622 12.2626 7.62942 12.6385L7.09393 12.8371V7.77608L7.62942 7.97493C8.56622 8.35074 9.39167 8.9254 10.0386 9.65477C10.574 8.79271 10.8863 7.79809 10.8863 6.75944V6.53858V6.45004C10.8863 6.40589 10.8863 6.36162 10.8641 6.31747V6.22905C10.8641 6.18478 10.8641 6.14063 10.8416 6.09636V5.98593C10.8416 5.94166 10.8194 5.91964 10.8194 5.87537C10.8194 5.83122 10.7969 5.80909 10.7969 5.76482C10.7969 5.72079 10.7969 5.69854 10.7748 5.65439C10.7748 5.61012 10.7524 5.58822 10.7524 5.54383C10.7524 5.5217 10.7301 5.47767 10.7301 5.45554C10.7301 5.41126 10.7079 5.36699 10.7079 5.32285C10.6855 5.30083 10.6855 5.27858 10.6855 5.25656C10.6632 5.21229 10.6632 5.16814 10.6409 5.12399C10.6409 5.10198 10.6187 5.07972 10.6187 5.05771C10.1054 3.51068 8.90087 2.25093 7.3839 1.65425L6.73694 1.45528L5.64387 1.07959C4.8631 0.814211 4.01543 1.23429 3.74768 2.02982L0.0891253 12.9478C0.02222 13.1245 0 13.2792 0 13.4339C0 14.0527 0.401432 14.6274 1.02617 14.8264Z" fill="#FEFEFE"/>
<path fill-rule="evenodd" clip-rule="evenodd" d="M9.57035 10.2955C9.10201 9.76507 8.54418 9.30108 7.875 8.96954V11.6436C8.54418 11.3122 9.10201 10.8481 9.57035 10.2955Z" fill="#E95532"/>
<path fill-rule="evenodd" clip-rule="evenodd" d="M15.6606 13.1464H14.612L12.4928 10.2955L14.6567 7.46668H15.7052L13.5413 10.2955L15.6606 13.1464ZM17.6906 5.07973L10.0391 2.53809C11.0651 3.66528 11.6898 5.14614 11.6898 6.75933C11.6898 8.0411 11.2882 9.27896 10.5744 10.2955C11.2882 11.3345 11.6898 12.55 11.6898 13.8538C11.6898 15.3788 11.132 16.7934 10.1952 17.8762L13.0729 18.8484C13.8537 19.0915 14.7013 18.6717 14.9691 17.8982L18.6498 6.9583C18.9176 6.18479 18.4938 5.34499 17.6906 5.07973Z" fill="#004098"/>
<path fill-rule="evenodd" clip-rule="evenodd" d="M4.39467 13.1465H5.21988V7.46677H4.39467V13.1465ZM0 13.4339V13.412C0.00196419 13.2645 0.0254118 13.1162 0.0891253 12.9478L3.74768 2.02982C4.01543 1.23429 4.8631 0.814211 5.64387 1.07959L6.73694 1.45528L7.3839 1.65425C8.90087 2.25093 10.1054 3.51068 10.6187 5.05771C10.6187 5.07972 10.6409 5.10198 10.6409 5.12399C10.6632 5.16814 10.6632 5.21229 10.6855 5.25656C10.6855 5.27858 10.6855 5.30083 10.7079 5.32285C10.7079 5.36699 10.7301 5.41126 10.7301 5.45554C10.7301 5.47767 10.7524 5.5217 10.7524 5.54383C10.7524 5.58822 10.7748 5.61012 10.7748 5.65439C10.7969 5.69854 10.7969 5.72079 10.7969 5.76482C10.7969 5.80909 10.8194 5.83122 10.8194 5.87537C10.8194 5.91964 10.8416 5.94166 10.8416 5.98593V6.09636C10.8641 6.14063 10.8641 6.18478 10.8641 6.22905V6.31747C10.8863 6.36162 10.8863 6.40589 10.8863 6.45004V6.75944C10.8863 7.79809 10.574 8.79271 10.0386 9.65477C9.39167 8.9254 8.56622 8.35074 7.62942 7.97493L7.09393 7.77608V12.8371L7.62942 12.6385C8.56622 12.2626 9.39167 11.6878 10.0386 10.9584C10.574 11.8206 10.8863 12.8152 10.8863 13.8539V14.2294C10.8641 14.2738 10.8641 14.3401 10.8641 14.3843C10.8641 14.4285 10.8641 14.4727 10.8416 14.5166V14.6718C10.8194 14.7158 10.8194 14.7601 10.7969 14.8041C10.7969 14.8484 10.7969 14.8925 10.7748 14.9149C10.7748 14.9812 10.7524 15.0251 10.7524 15.0695C10.7524 15.1134 10.7301 15.158 10.7301 15.1797C10.7079 15.2462 10.7079 15.2903 10.6855 15.3345C10.6632 15.3789 10.6632 15.401 10.6632 15.4452C10.6409 15.4893 10.6187 15.5336 10.5962 15.5998C10.5962 15.6219 10.574 15.6659 10.574 15.6882C10.5517 15.7326 10.5293 15.7987 10.507 15.8428C10.507 15.865 10.4847 15.9089 10.4847 15.9313C10.4625 15.9757 10.4401 16.042 10.3955 16.086C10.3955 16.1081 10.3733 16.1304 10.3733 16.1522C10.3508 16.2187 10.3286 16.285 10.2839 16.3291C10.2839 16.3513 10.2616 16.3734 10.2616 16.3953C10.2393 16.4397 10.1948 16.5058 10.1502 16.5721C10.1502 16.5721 10.1502 16.5944 10.1279 16.6165C10.1054 16.6828 10.0609 16.7268 10.0162 16.7935C10.0162 16.7935 10.0162 16.8154 9.99395 16.8375C9.97173 16.8815 9.92716 16.948 9.88248 17.0142L9.86014 17.0365C9.81557 17.1026 9.77076 17.1468 9.72632 17.2131L9.70398 17.2352C9.65942 17.3015 9.61461 17.3459 9.57005 17.4122L9.54783 17.4343C9.50326 17.5006 9.43636 17.5446 9.39167 17.6109L1.02617 14.8264C0.401432 14.6274 0 14.0527 0 13.4339Z" fill="#1C9AD2"/>
</g>
</svg>
