<svg width="98" height="20" viewBox="0 0 98 20" fill="none" xmlns="http://www.w3.org/2000/svg">
<mask id="mask0" mask-type="alpha" maskUnits="userSpaceOnUse" x="7" y="5" width="12" height="10">
<path fill-rule="evenodd" clip-rule="evenodd" d="M7.87891 5.76801H18.3206V14.7159H7.87891V5.76801Z" fill="white"/>
</mask>
<g mask="url(#mask0)">
<path fill-rule="evenodd" clip-rule="evenodd" d="M13.1143 13.7351C11.5269 13.7229 10.3303 12.163 10.3688 10.2274C10.346 8.27159 11.5299 6.71973 13.1081 6.71245C14.6806 6.72027 15.8403 8.284 15.8701 10.2255C15.9145 12.1724 14.6727 13.7386 13.1143 13.7351ZM13.1445 5.76801C9.85411 5.76989 7.84233 7.75808 7.87941 10.2452C7.85397 12.6994 9.84762 14.7033 13.1336 14.7159C16.4078 14.7095 18.3743 12.7064 18.3191 10.2266C18.3822 7.75404 16.3999 5.76935 13.1445 5.76801Z" fill="#FEFEFE"/>
</g>
<path fill-rule="evenodd" clip-rule="evenodd" d="M28.3314 6.10394L18.8887 6.09686L18.938 7.10962L22.5174 7.08513L22.5335 14.4302L25.2472 14.415L25.2372 7.10744L28.3331 7.08676L28.3314 6.10394Z" fill="#FEFEFE"/>
<path fill-rule="evenodd" clip-rule="evenodd" d="M38.3054 6.10505L28.8887 6.09686L28.8991 7.11966L31.9859 7.09754L31.9964 14.4302L34.6889 14.4094L34.7208 7.10928L38.3331 7.08088L38.3054 6.10505Z" fill="#FEFEFE"/>
<path fill-rule="evenodd" clip-rule="evenodd" d="M3.15726 13.4264C2.86787 13.4305 2.64569 13.2492 2.64454 12.9719L2.64283 6.09714L0 6.09686L0.00543321 13.4365C-0.0228767 13.9786 0.490418 14.4345 1.07263 14.4302L7.77778 14.4073L7.77234 13.4393L3.15726 13.4264Z" fill="#FEFEFE"/>
<path fill-rule="evenodd" clip-rule="evenodd" d="M42.4467 7.08755L47.1963 7.06596L47.2188 6.10588L40.4257 6.09686C39.8941 6.10752 39.4696 6.53714 39.4696 7.05557L39.4454 13.4479C39.4376 13.9994 39.9241 14.4385 40.4539 14.4301L47.1869 14.4159L47.2231 13.4607L42.4303 13.4651C42.1837 13.4443 41.9722 13.2262 41.9478 12.9587L41.9744 10.5122L47.1037 10.5092L47.1155 9.52695L41.9043 9.51656L41.9508 7.57974C41.9644 7.30755 42.1976 7.08099 42.4467 7.08755Z" fill="#FEFEFE"/>
<path fill-rule="evenodd" clip-rule="evenodd" d="M82.8071 11.6212C84.1995 11.3535 84.8266 10.2787 84.8488 8.94208C84.838 8.07951 84.6163 7.42267 84.1018 6.90903C83.6357 6.39341 82.8763 6.11098 81.8536 6.12428L74.7469 6.11212L74.7486 14.9651L76.4247 14.9793L76.4609 7.73906L81.4861 7.70878C82.6601 7.75067 83.0731 8.06677 83.0985 8.93614C83.0775 9.78711 82.6812 10.1061 81.5129 10.1358L76.226 10.1247L76.2199 11.7152L80.8307 11.7092L83.2823 14.9691L85.2963 14.9677L85.1272 14.7059L82.8071 11.6212ZM51.8942 7.35502C50.9989 8.1494 50.566 9.26242 50.5547 10.6208C50.579 11.8827 51.0567 12.9561 51.9653 13.798C52.8108 14.5751 53.893 14.9775 55.1951 14.9623L60.9028 14.9719L60.9839 13.3713L55.072 13.3398C54.2716 13.328 53.6829 13.1092 53.1347 12.5851C52.6595 12.0463 52.4087 11.4166 52.3639 10.6123C52.3655 9.7172 52.6451 9.03263 53.1845 8.5006C53.7206 7.98215 54.41 7.71698 55.3072 7.71103L60.9581 7.73565L60.9379 6.11861L55.444 6.0971C53.9746 6.08522 52.7693 6.51424 51.8942 7.35502ZM94.6251 12.5809C94.1441 13.1004 93.5587 13.365 92.7246 13.3432L88.2208 13.3503L88.1932 7.71246L92.4462 7.7201C93.3387 7.72972 94.0306 8.00734 94.5689 8.50966C95.1479 9.04905 95.3942 9.73164 95.428 10.6217C95.3707 11.4257 95.1775 12.0686 94.6251 12.5809ZM95.9294 7.34935C95.0435 6.53772 93.8451 6.10926 92.4444 6.10841L86.5206 6.10671L86.5195 14.9753L92.6138 14.9857C93.8791 14.9719 94.9693 14.572 95.8228 13.7966C96.763 12.9804 97.2315 11.9008 97.2099 10.6398L97.2213 10.6089C97.2094 9.26128 96.7801 8.15165 95.9294 7.34935ZM65.7116 11.4593L67.8172 7.76084L69.9309 11.4698L65.7116 11.4593ZM68.8165 6.1285L66.8543 6.13303L61.8515 14.9665L63.7808 14.9656L64.8884 13.0874L70.7679 13.0537L71.8891 14.975L73.3842 14.9594L73.7702 14.9591L73.6598 14.7752L68.8165 6.1285Z" fill="#FEFEFE"/>
</svg>
