<svg width="21" height="20" viewBox="0 0 21 20" fill="none" xmlns="http://www.w3.org/2000/svg">
<mask id="mask0" mask-type="alpha" maskUnits="userSpaceOnUse" x="0" y="15" width="7" height="5">
<path fill-rule="evenodd" clip-rule="evenodd" d="M0 15.7784H6.24729V19.5564H0V15.7784Z" fill="white"/>
</mask>
<g mask="url(#mask0)">
<path fill-rule="evenodd" clip-rule="evenodd" d="M3.82031 19.0654C3.31225 19.3744 2.85046 19.5564 2.36406 19.5564C1.10966 19.5564 0.0600615 18.5124 0 17.2574L2.44578 15.7784L6.24738 17.5044L3.82031 19.0654Z" fill="#73B5D7"/>
</g>
<path fill-rule="evenodd" clip-rule="evenodd" d="M5.27384 12.7091L3.45723 11.8961C2.64591 11.5271 1.88086 11.2221 1.88086 10.3131C1.88086 9.84305 2.02067 9.59805 2.2432 9.35205L6.0832 11.0721L5.13108 11.6311C4.87015 11.7941 4.68701 11.9371 4.68701 12.1421C4.68701 12.3651 4.93612 12.5541 5.27384 12.7091Z" fill="#A7D19F"/>
<path fill-rule="evenodd" clip-rule="evenodd" d="M7.05764 4.19624L5.19574 5.34324C5.03131 5.44424 4.81075 5.60824 4.81075 5.85924C4.81075 6.14624 5.24004 6.36624 5.62208 6.55024L3.29248 5.50824C2.6062 5.20024 1.91992 4.85124 1.91992 4.01124C1.91992 3.65824 2.02134 3.37124 2.18183 3.12724L7.22011 0.000244141C7.82269 0.348244 8.40854 1.05024 8.40854 1.99524C8.40854 3.00424 7.90441 3.67824 7.05764 4.19624Z" fill="#73B5D7"/>
<path fill-rule="evenodd" clip-rule="evenodd" d="M11.0196 7.89246L10.5559 8.15946L6.70898 6.43346L11.1801 3.69946C11.7827 4.05246 12.3764 4.74646 12.3764 5.69046C12.3764 6.70046 11.8861 7.39646 11.0196 7.89246Z" fill="#A7D19F"/>
<path fill-rule="evenodd" clip-rule="evenodd" d="M7.77282 11.21L10.0483 12.225C10.9009 12.613 11.1629 13.068 11.1629 13.645C11.1629 13.97 10.9807 14.298 10.7188 14.523L6.89258 12.799L7.54045 12.43C8.0879 12.123 8.26907 11.938 8.26907 11.733C8.26907 11.521 8.14107 11.381 7.77282 11.21Z" fill="#73B5D7"/>
<path fill-rule="evenodd" clip-rule="evenodd" d="M11.8283 19.7402C10.8594 18.9842 9.82757 18.4712 8.57021 17.8932L2.76886 15.2862C1.30966 14.6262 0.34375 13.7462 0.34375 12.2642C0.34375 10.8262 1.02806 10.1292 1.92012 9.55717L2.24307 9.35217C2.02153 9.59717 1.87975 9.84417 1.87975 10.3132C1.87975 11.2202 2.64677 11.5272 3.45809 11.8962L10.2096 14.9172C11.3842 15.4292 12.4604 16.3092 12.4604 17.8102C12.4604 18.6352 12.1493 19.3732 11.8283 19.7402Z" fill="#35AB46"/>
<mask id="mask1" mask-type="alpha" maskUnits="userSpaceOnUse" x="0" y="3" width="13" height="12">
<path fill-rule="evenodd" clip-rule="evenodd" d="M0.464844 3.12683H12.6166V14.5238H0.464844V3.12683Z" fill="white"/>
</mask>
<g mask="url(#mask1)">
<path fill-rule="evenodd" clip-rule="evenodd" d="M11.142 14.2578L10.7176 14.5238C10.9796 14.2998 11.1607 13.9698 11.1607 13.6438C11.1607 13.0698 10.8988 12.6118 10.0471 12.2248L2.82792 8.99783C1.36971 8.34283 0.464844 7.49783 0.464844 6.02483C0.464844 4.66583 1.12749 3.77983 2.18103 3.12683C2.02054 3.37083 1.92011 3.65783 1.92011 4.01183C1.92011 4.85183 2.6054 5.19983 3.29167 5.50783L10.308 8.65183C11.5831 9.22383 12.617 10.0878 12.617 11.6708C12.617 12.9038 12.0488 13.6838 11.142 14.2578Z" fill="#007EB1"/>
</g>
</svg>
