<svg width="48" height="20" viewBox="0 0 48 20" fill="none" xmlns="http://www.w3.org/2000/svg">
<mask id="mask0" mask-type="alpha" maskUnits="userSpaceOnUse" x="0" y="2" width="48" height="16">
<path fill-rule="evenodd" clip-rule="evenodd" d="M0 2.11682H47.9432V17.9334H0V2.11682Z" fill="white"/>
</mask>
<g mask="url(#mask0)">
<path fill-rule="evenodd" clip-rule="evenodd" d="M42.0834 11.6857C50.5942 7.34528 49.5284 3.19591 40.8681 2.34008C31.5364 1.41734 17.9033 3.4143 8.40431 7.23164L7.08742 7.79351C-2.80574 12.1951 -1.86875 16.853 6.96243 17.7032C16.6112 18.6322 31.2795 16.7344 40.8842 12.2834L42.0834 11.6857Z" fill="#FEFEFE"/>
</g>
<path fill-rule="evenodd" clip-rule="evenodd" d="M40.2451 12.5365C40.2451 12.5365 38.6196 12.6672 38.5809 11.3629V8.83935C38.5809 8.83935 38.3789 7.44887 40.2007 7.44887C40.2007 7.44887 41.3866 7.41021 41.6993 8.11082C41.6993 8.11082 41.8541 8.29815 41.8133 9.07258H40.5495V8.67596C40.5495 8.67596 40.5477 8.35526 40.2198 8.35526C40.2198 8.35526 39.8776 8.36998 39.8776 8.63812V11.2474C39.8776 11.2474 39.8628 11.598 40.2487 11.598C40.2487 11.598 40.565 11.5908 40.565 11.2228V10.4677H40.2206V9.76525H41.8433V11.2474C41.8433 11.2474 41.8395 11.5596 41.7093 11.7414C41.7093 11.7414 41.5772 11.9402 41.5272 11.9773C41.5272 11.9773 41.09 12.5365 40.2451 12.5365Z" fill="#014DA1"/>
<path fill-rule="evenodd" clip-rule="evenodd" d="M36.9023 7.63733H35.6382L35.7281 10.5282H35.6735L34.391 7.63815H32.8574V12.4024H34.106L34.0311 9.48889H34.087L35.4146 12.4024H36.9023V7.63733Z" fill="#014DA1"/>
<path fill-rule="evenodd" clip-rule="evenodd" d="M29.0721 7.61682H27.7035V11.1904C27.7035 11.1904 27.5626 12.5425 29.4805 12.5425C29.4805 12.5425 31.1476 12.5625 31.1476 11.2529V7.61752H29.8095V11.2096C29.8095 11.2096 29.8279 11.6027 29.4615 11.6027C29.4615 11.6027 29.0766 11.6227 29.0766 11.2195L29.0721 7.61682Z" fill="#014DA1"/>
<path fill-rule="evenodd" clip-rule="evenodd" d="M26.1301 9.09186L26.1275 8.49483C26.1275 8.49483 26.2241 7.51591 24.6434 7.4727C24.6434 7.4727 23.3994 7.39107 23.0428 8.05781C23.0428 8.05781 22.9029 8.20672 22.9029 8.72456V9.0991C22.9029 9.0991 22.8887 9.53075 23.1104 9.80905C23.1104 9.80905 23.2359 9.99101 23.5441 10.1922C23.5441 10.1922 24.1708 10.5282 24.5466 10.7202C24.5466 10.7202 24.9263 10.9361 24.8761 11.2786C24.8761 11.2786 24.8455 11.6312 24.4792 11.6167C24.4792 11.6167 24.1438 11.602 24.1438 11.2566V10.851H22.8008V11.4394C22.8008 11.4394 22.7634 12.5664 24.4888 12.5664C24.4888 12.5664 26.1373 12.6003 26.2141 11.4107V10.9306C26.2141 10.9306 26.2722 10.2022 25.631 9.81828C25.631 9.81828 25.289 9.60713 25.077 9.52619C25.077 9.52619 24.4215 9.22313 24.2913 9.07971C24.2913 9.07971 24.0359 8.83936 24.1855 8.56187C24.1855 8.56187 24.2479 8.37921 24.5178 8.37921C24.5178 8.37921 24.8695 8.39837 24.8695 8.68672V9.09186H26.1301Z" fill="#014DA1"/>
<path fill-rule="evenodd" clip-rule="evenodd" d="M16.1523 7.63678L16.0469 12.4017L17.293 12.4024L17.308 8.81155H17.4062L18.0669 12.401H19.3782L20.0309 8.81307H20.1171L20.1474 12.4017H21.4002L21.2655 7.63678H19.1813L18.7588 10.2447H18.6606L18.2571 7.63678H16.1523Z" fill="#014DA1"/>
<path fill-rule="evenodd" clip-rule="evenodd" d="M14.709 12.397L13.8802 7.63275H11.7624L10.9336 12.397H12.2749L12.7659 8.70265H12.8766L13.3673 12.397H14.709Z" fill="#014DA1"/>
<path fill-rule="evenodd" clip-rule="evenodd" d="M9.61655 9.09186L9.61385 8.49483C9.61385 8.49483 9.71067 7.51591 8.12948 7.4727C8.12948 7.4727 6.88571 7.39107 6.5294 8.05781C6.5294 8.05781 6.38928 8.20672 6.38928 8.72456V9.0991C6.38928 9.0991 6.37496 9.53075 6.59689 9.80905C6.59689 9.80905 6.72187 9.99101 7.03053 10.1922C7.03053 10.1922 7.65735 10.5282 8.0329 10.7202C8.0329 10.7202 8.41267 10.9361 8.36256 11.2786C8.36256 11.2786 8.33205 11.6312 7.96553 11.6167C7.96553 11.6167 7.63035 11.602 7.63035 11.2566V10.851H6.28717V11.4394C6.28717 11.4394 6.24985 12.5664 7.97516 12.5664C7.97516 12.5664 9.62359 12.6003 9.70069 11.4107V10.9306C9.70069 10.9306 9.75879 10.2022 9.11742 9.81828C9.11742 9.81828 8.77508 9.60713 8.56348 9.52619C8.56348 9.52619 7.90756 9.22313 7.77741 9.07971C7.77741 9.07971 7.52203 8.83936 7.6712 8.56187C7.6712 8.56187 7.73433 8.37921 8.00426 8.37921C8.00426 8.37921 8.35599 8.39837 8.35599 8.68672V9.09186H9.61655Z" fill="#014DA1"/>
</svg>
