<svg width="21" height="20" viewBox="0 0 21 20" fill="none" xmlns="http://www.w3.org/2000/svg">
<mask id="mask0" mask-type="alpha" maskUnits="userSpaceOnUse" x="0" y="0" width="20" height="20">
<path fill-rule="evenodd" clip-rule="evenodd" d="M0 0.0396729H19.9975V19.9701H0V0.0396729Z" fill="white"/>
</mask>
<g mask="url(#mask0)">
<path fill-rule="evenodd" clip-rule="evenodd" d="M19.9975 17.1227C19.9975 18.6952 18.7192 19.9701 17.1413 19.9701H2.85658C1.27924 19.9701 0 18.6952 0 17.1227V2.88658C0 1.31412 1.27924 0.0396729 2.85658 0.0396729H17.1413C18.7192 0.0396729 19.9975 1.31412 19.9975 2.88658V17.1227Z" fill="#FFE400"/>
</g>
<path fill-rule="evenodd" clip-rule="evenodd" d="M10.6654 12.3514H9.81483V7.66803H10.6559C10.6559 7.66803 10.6524 7.66593 10.6558 7.66589C10.6558 7.66661 10.6559 7.66732 10.6559 7.66803H10.6654V12.3514ZM14.2881 11.9986C14.1897 11.2883 13.8616 10.6893 13.3132 10.2177C13.2322 10.148 13.1474 10.0827 13.0519 10.0053C13.1308 9.94605 13.1972 9.90046 13.2588 9.84915C13.6502 9.52347 13.9385 9.12518 14.127 8.65046C14.3061 8.19931 14.351 7.73129 14.287 7.25998C14.2084 6.68192 13.9641 6.17018 13.5648 5.73696C13.2771 5.42478 12.9417 5.17843 12.5485 5.01823C12.1697 4.86395 11.7812 4.79407 11.3625 4.79407L6.811 4.7949C6.77951 4.7949 6.74774 4.79335 6.71657 4.79688C6.605 4.8095 6.53935 4.88034 6.53434 4.9922C6.53291 5.02359 6.53418 5.0551 6.53418 5.08653C6.53418 8.35752 6.53414 11.6285 6.53418 14.8995C6.53418 14.9489 6.53144 14.9985 6.53514 15.0476C6.54158 15.1339 6.6007 15.1978 6.68619 15.2119C6.71697 15.217 6.74901 15.2154 6.7805 15.2154L11.4941 15.2155C11.9782 15.2158 12.4304 15.094 12.8476 14.8547C13.4454 14.5117 13.8722 14.02 14.1268 13.3755C14.3035 12.928 14.3527 12.4649 14.2881 11.9986Z" fill="#1E1719"/>
</svg>
