<svg width="26" height="18" viewBox="0 0 26 18" fill="none" xmlns="http://www.w3.org/2000/svg">
<mask id="mask0" mask-type="alpha" maskUnits="userSpaceOnUse" x="0" y="0" width="26" height="18">
<path fill-rule="evenodd" clip-rule="evenodd" d="M0 0.405914H25.368V17.9999H0V0.405914Z" fill="white"/>
</mask>
<g mask="url(#mask0)">
<path fill-rule="evenodd" clip-rule="evenodd" d="M24.9581 9.43446C24.9581 9.43384 24.7382 9.29791 24.7382 9.29791C23.9904 8.57108 22.9487 8.25639 21.5558 8.33522C20.3962 8.40412 19.4763 8.85226 18.7737 9.26812C18.7737 9.25757 18.7731 9.24763 18.7731 9.23708C18.7731 8.88329 18.8139 8.50032 18.8547 8.12791C18.8949 7.74929 18.9369 7.36446 18.9369 7.00012C18.9369 6.62832 18.8936 6.27515 18.7623 5.9735C18.7291 5.89653 18.6558 5.8506 18.5634 5.8506C18.1885 5.85805 17.4567 6.10819 17.2794 6.25963C17.2794 6.26026 17.1832 6.46508 17.1832 6.46508C17.1768 6.86915 17.085 7.99695 16.9926 8.13412C16.9964 8.12915 16.9441 8.27005 16.9441 8.27005C16.786 9.88074 16.7828 11.2972 16.9282 12.5131C16.9447 12.6347 17.1857 12.8172 17.3712 12.8836C17.5752 12.9569 18.2121 12.7905 18.5799 12.6558C18.5748 12.6577 18.717 12.6347 18.717 12.6347C18.8337 12.6223 18.9019 12.5274 18.8968 12.3983C18.8949 12.3958 18.9057 12.0482 18.9057 12.0482C19.1709 10.9992 20.2438 9.74605 21.5137 9.5586C22.2315 9.4475 22.7983 9.6275 23.2458 10.1023C23.3064 10.1874 23.437 10.9427 22.964 11.8105C22.6121 12.4529 21.9077 12.9947 20.9814 13.333C20.1042 13.6576 19.1397 13.7886 17.9475 13.7489C17.8978 13.7172 16.8319 13.0146 16.8319 13.0146C15.8865 12.3685 14.7122 11.564 13.6482 11.1712C13.4608 11.101 13.1261 10.8304 12.9247 10.6678L12.8144 10.5803C12.2005 10.1011 11.0319 9.3426 10.0935 8.73432C10.0935 8.73432 9.67023 8.4575 9.58863 8.40412C9.58927 8.3706 9.58927 8.30108 9.58927 8.30108C9.61668 8.27191 10.207 7.92743 10.207 7.92743C11.0319 7.45757 11.4132 7.22729 11.4941 7.10812C11.4775 7.12736 11.6038 7.04481 11.6038 7.04481C11.6114 7.0417 13.6501 5.91763 13.6501 5.91763C15.6143 4.86743 17.8392 3.67446 19.0083 2.49639C19.0096 2.49515 19.0657 2.31577 19.0657 2.31577L19.0906 2.15563C19.169 1.90363 19.1728 1.71122 19.1071 1.48715C19.0906 1.4226 19.0306 1.34874 18.9497 1.33508C18.0368 1.24632 16.86 1.77888 15.7883 2.7577C15.5461 2.97805 15.3433 3.08667 15.1291 3.19963L14.9647 3.28901C13.7834 3.9426 11.1225 5.55143 9.72888 6.41853C9.82068 4.95991 10.0974 2.88557 10.4391 1.1557L10.4008 0.949634C10.397 0.942186 10.2561 0.687703 10.2561 0.687703L10.1484 0.500255L10.1171 0.492807C9.83917 0.355634 9.61158 0.411496 9.4452 0.451841L9.16661 0.551772L8.79495 0.682738C8.72227 0.697014 8.67064 0.741703 8.64195 0.809979C7.97704 2.37598 7.42177 4.95122 7.29045 7.01129C5.96062 6.18826 4.73152 5.5955 4.12909 5.30998L4.11251 5.30067L4.04111 5.28577C3.82372 5.25846 3.55916 5.10329 3.30607 4.95308C3.27866 4.93757 2.79926 4.63405 2.79926 4.63405L2.02661 4.15239C2.03299 4.15736 1.82325 4.10708 1.82325 4.10708C1.49111 4.16232 0.85425 4.57943 0.66555 4.8637C0.640687 4.90157 0.62985 4.94191 0.62985 4.98474C0.62985 5.04432 0.649612 5.10453 0.66555 5.16288L0.699337 5.31619L0.735675 5.40805C1.10606 5.77736 2.04064 6.3937 2.95672 6.87288L4.0188 7.42095L5.64506 8.28557C5.64506 8.29301 5.92174 8.50032 5.92174 8.50032L6.11299 8.60708C6.11299 8.60708 6.1353 8.62012 6.14805 8.62819C5.71519 8.9106 3.19069 10.5511 3.19069 10.5511L1.63582 11.5547C1.48856 11.6522 0.875287 11.9197 0.7395 11.9725C0.4029 12.1065 0.147262 12.3114 0.042075 12.5342L0 12.6217L0.042075 12.6794L0.161287 12.7676C0.154912 12.7676 0.320025 12.8687 0.320025 12.8687L0.491512 12.9829C0.495337 12.9842 0.653437 13.0078 0.653437 13.0078C0.926925 13.0183 1.3311 12.8663 2.08845 12.5435C2.78396 12.2437 4.67224 11.1345 5.47995 10.6609L5.8242 10.4598C5.96636 10.4716 6.12255 10.3543 6.26344 10.2513C6.42536 10.1259 6.77726 9.91488 6.99146 9.82239C6.99847 9.82115 7.12087 9.75474 7.2369 9.69205C7.23562 9.72619 7.23499 9.78143 7.23499 9.78143C7.27069 12.1866 7.41221 13.9345 7.68251 15.282L7.68634 15.3049L7.71247 15.3596C7.84507 15.5495 7.9968 16.1193 8.13067 16.622L8.43795 17.6257C8.44496 17.6375 8.52528 17.7194 8.52528 17.7194C8.7006 17.8361 9.2361 18.0354 9.5931 17.9944L9.68235 17.9838L9.73845 17.8622C9.76905 17.712 9.77925 17.5643 9.77925 17.4016C9.77925 17.2185 9.76586 17.0168 9.74928 16.7685L9.72506 16.4067C9.61158 14.7283 9.49875 12.3052 9.49875 10.6932V10.5647C9.792 10.7435 11.0727 11.5299 11.0727 11.5299C13.2543 12.9072 16.5482 14.9884 18.5385 15.5377C18.6424 15.5687 18.7514 15.5452 18.8273 15.4738C18.8305 15.47 19.1339 15.2826 19.1339 15.2826L19.1913 15.2596C19.3054 15.2069 19.3813 15.0194 19.3953 14.8165C21.0732 14.7345 23.4128 14.1052 24.6655 12.572C25.15 11.9774 25.368 11.25 25.368 10.6274C25.368 10.1166 25.2227 9.67653 24.9581 9.43446Z" fill="#FCAE15"/>
</g>
</svg>
