<svg width="22" height="20" viewBox="0 0 22 20" fill="none" xmlns="http://www.w3.org/2000/svg">
<path d="M4.02287 6.00806C3.64573 6.7411 4.02287 8.26262 4.50687 8.99566L11.0754 19.0981H6.28573C5.56198 19.0937 4.88326 18.7531 4.45659 18.1802L0.873732 12.704C0.536881 12.1322 0.536881 11.4277 0.873732 10.856L4.02287 6.00806Z" fill="url(#paint0_radial)"/>
<path d="M6.79457 10.9853C6.54761 11.4235 6.52206 11.9491 6.72543 12.4083L4.50657 9.00797C4.03514 8.26261 3.64543 6.74109 4.02257 6.00805L4.41857 5.39205C4.83746 4.79284 5.54545 4.45177 6.28543 4.49269H11.006L6.79457 10.9853Z" fill="url(#paint1_radial)"/>
<path d="M18.3796 14.09C18.763 13.357 18.3796 11.8354 17.8956 11.1024L11.3145 1H16.1105C16.8325 1.00431 17.5093 1.3451 17.9333 1.91784L21.5162 7.42488C21.853 7.99665 21.853 8.70111 21.5162 9.27288L18.3796 14.09Z" fill="url(#paint2_radial)"/>
<path d="M15.6071 9.11266C15.8701 8.68154 15.9098 8.15391 15.7139 7.6897L17.9265 11.1023C18.4042 11.8354 18.7939 13.3569 18.4105 14.0899L18.0208 14.7059C17.6072 15.3059 16.9045 15.6514 16.1665 15.6176H11.4082L15.6071 9.11266Z" fill="url(#paint3_radial)"/>
<defs>
<radialGradient id="paint0_radial" cx="0" cy="0" r="1" gradientUnits="userSpaceOnUse" gradientTransform="translate(0.779697 7.14174) rotate(-90) scale(12.4858 9.97183)">
<stop stop-color="#C7DFF4"/>
<stop offset="0.07" stop-color="#BFDBF3"/>
<stop offset="0.17" stop-color="#A9D1EF"/>
<stop offset="0.25" stop-color="#92C5EB"/>
<stop offset="0.36" stop-color="#84B3E0"/>
<stop offset="0.57" stop-color="#5F83C2"/>
<stop offset="0.7" stop-color="#4764AF"/>
<stop offset="0.86" stop-color="#3552A5"/>
<stop offset="1" stop-color="#213F9A"/>
</radialGradient>
<radialGradient id="paint1_radial" cx="0" cy="0" r="1" gradientUnits="userSpaceOnUse" gradientTransform="translate(14.1753 5.34739) scale(8.95809 9.94242)">
<stop stop-color="#C7DFF4"/>
<stop offset="0.07" stop-color="#BFDBF3"/>
<stop offset="0.17" stop-color="#A9D1EF"/>
<stop offset="0.25" stop-color="#92C5EB"/>
<stop offset="0.36" stop-color="#84B3E0"/>
<stop offset="0.57" stop-color="#5F83C2"/>
<stop offset="0.7" stop-color="#4764AF"/>
<stop offset="0.86" stop-color="#3552A5"/>
<stop offset="1" stop-color="#213F9A"/>
</radialGradient>
<radialGradient id="paint2_radial" cx="0" cy="0" r="1" gradientUnits="userSpaceOnUse" gradientTransform="translate(21.6259 9.81188) rotate(90) scale(12.4858 9.97183)">
<stop stop-color="#C7DFF4"/>
<stop offset="0.07" stop-color="#BFDBF3"/>
<stop offset="0.17" stop-color="#A9D1EF"/>
<stop offset="0.25" stop-color="#92C5EB"/>
<stop offset="0.36" stop-color="#84B3E0"/>
<stop offset="0.57" stop-color="#5F83C2"/>
<stop offset="0.7" stop-color="#4764AF"/>
<stop offset="0.86" stop-color="#3552A5"/>
<stop offset="1" stop-color="#213F9A"/>
</radialGradient>
<radialGradient id="paint3_radial" cx="0" cy="0" r="1" gradientUnits="userSpaceOnUse" gradientTransform="translate(8.9552 13.9781) rotate(180) scale(8.95809 9.92504)">
<stop stop-color="#C7DFF4"/>
<stop offset="0.07" stop-color="#BFDBF3"/>
<stop offset="0.17" stop-color="#A9D1EF"/>
<stop offset="0.25" stop-color="#92C5EB"/>
<stop offset="0.36" stop-color="#84B3E0"/>
<stop offset="0.57" stop-color="#5F83C2"/>
<stop offset="0.7" stop-color="#4764AF"/>
<stop offset="0.86" stop-color="#3552A5"/>
<stop offset="1" stop-color="#213F9A"/>
</radialGradient>
</defs>
</svg>
